<svg width="64" height="64" viewBox="0 0 64 64" fill="none" xmlns="http://www.w3.org/2000/svg">
<path d="M2.66675 58.6667H61.3334" stroke="#5F0F58" stroke-width="1.5" stroke-miterlimit="10" stroke-linecap="round" stroke-linejoin="round"/>
<path d="M52.7468 58.6934V46.8" stroke="#5F0F58" stroke-width="1.5" stroke-miterlimit="10" stroke-linecap="round" stroke-linejoin="round"/>
<path d="M52.8 29.04C49.5467 29.04 46.9333 31.6534 46.9333 34.9067V40.96C46.9333 44.2133 49.5467 46.8267 52.8 46.8267C56.0534 46.8267 58.6667 44.2133 58.6667 40.96V34.9067C58.6667 31.6534 56.0534 29.04 52.8 29.04Z" stroke="#5F0F58" stroke-width="1.5" stroke-miterlimit="10" stroke-linecap="round" stroke-linejoin="round"/>
<path d="M5.59985 58.6666V16.0801C5.59985 10.7201 8.26666 8.02667 13.5733 8.02667H30.1866C35.4933 8.02667 38.1332 10.7201 38.1332 16.0801V58.6666" stroke="#5F0F58" stroke-width="1.5" stroke-miterlimit="10" stroke-linecap="round" stroke-linejoin="round"/>
<path d="M15.4666 22H28.6666" stroke="#5F0F58" stroke-width="1.5" stroke-miterlimit="10" stroke-linecap="round" stroke-linejoin="round"/>
<path d="M15.4666 32H28.6666" stroke="#5F0F58" stroke-width="1.5" stroke-miterlimit="10" stroke-linecap="round" stroke-linejoin="round"/>
<path d="M22 58.6667V48.6667" stroke="#5F0F58" stroke-width="1.5" stroke-miterlimit="10" stroke-linecap="round" stroke-linejoin="round"/>
</svg>
