<svg width="100" height="100" viewBox="0 0 100 100" fill="none" xmlns="http://www.w3.org/2000/svg">
<path d="M73.4375 21.875H73.3859C72.5781 9.67656 62.3984 0 50 0C37.6016 0 27.4219 9.67656 26.6141 21.875H26.5625C15.3625 21.875 6.25 30.9875 6.25 42.1875C6.25 52.8625 14.5266 61.6391 25 62.4406V92.1875C25 96.4953 28.5047 100 32.8125 100H67.1875C71.4953 100 75 96.4953 75 92.1875V62.4406C85.4734 61.6391 93.75 52.8625 93.75 42.1875C93.75 30.9875 84.6375 21.875 73.4375 21.875Z" fill="url(#paint0_linear_406_241)"/>
<path d="M74.9891 49.8235C74.9625 49.5875 74.6859 47.475 73.2484 46.0391L63.3359 36.1266C61.9 34.6891 59.7875 34.411 59.5516 34.386C59.493 34.3784 59.434 34.3747 59.375 34.375H32.8125C28.5047 34.375 25 37.8797 25 42.1875V92.1875C25 96.4953 28.5047 100 32.8125 100H67.1875C71.4953 100 75 96.4953 75 92.1875V50C75.0003 49.941 74.9966 49.882 74.9891 49.8235Z" fill="url(#paint1_linear_406_241)"/>
<path d="M45.3125 65.625V76.5625H54.6875V65.625H57.8125L50 57.8125L42.1875 65.625H45.3125Z" fill="url(#paint2_linear_406_241)"/>
<path d="M73.2484 46.0387L63.3359 36.1262C61.9 34.6887 59.7875 34.4106 59.5516 34.3856C59.3328 34.36 59.1111 34.381 58.9011 34.4473C58.6911 34.5137 58.4976 34.6238 58.3332 34.7704C58.1689 34.917 58.0375 35.0968 57.9477 35.2979C57.858 35.499 57.8119 35.7169 57.8125 35.9371V43.7496C57.8125 48.0575 61.3172 51.5621 65.625 51.5621H73.4375C73.6577 51.5628 73.8756 51.5167 74.0767 51.4269C74.2778 51.3371 74.4576 51.2058 74.6043 51.0414C74.7509 50.8771 74.861 50.6835 74.9273 50.4735C74.9936 50.2635 75.0147 50.0418 74.9891 49.8231C74.9641 49.5856 74.6859 47.4746 73.2484 46.0387Z" fill="url(#paint3_linear_406_241)"/>
<defs>
<linearGradient id="paint0_linear_406_241" x1="17.4047" y1="87.8234" x2="82.5953" y2="22.6328" gradientUnits="userSpaceOnUse">
<stop stop-color="#5F0F58"/>
<stop offset="1" stop-color="#B527A8"/>
</linearGradient>
<linearGradient id="paint1_linear_406_241" x1="23.3844" y1="93.8031" x2="72.1984" y2="44.9891" gradientUnits="userSpaceOnUse">
<stop stop-color="#E0E1E6"/>
<stop offset="1" stop-color="#E7E5E6"/>
</linearGradient>
<linearGradient id="paint2_linear_406_241" x1="44.1794" y1="74.2794" x2="56.3881" y2="62.6521" gradientUnits="userSpaceOnUse">
<stop stop-color="#D59315"/>
<stop offset="1" stop-color="#E9A522"/>
</linearGradient>
<linearGradient id="paint3_linear_406_241" x1="60.1031" y1="49.2715" x2="68.2922" y2="41.0825" gradientUnits="userSpaceOnUse">
<stop stop-color="#57A62F"/>
<stop offset="1" stop-color="#56BD22"/>
</linearGradient>
</defs>
</svg>
