<?xml version="1.0" encoding="utf-8"?>
<!-- Generator: Adobe Illustrator 27.9.4, SVG Export Plug-In . SVG Version: 9.03 Build 54784)  -->
<svg version="1.1" id="Layer_1" xmlns="http://www.w3.org/2000/svg" xmlns:xlink="http://www.w3.org/1999/xlink" x="0px" y="0px"
	 viewBox="0 0 368 283" style="enable-background:new 0 0 368 283;" xml:space="preserve">
<style type="text/css">
	.st0{fill:#5F0F58;}
	.st1{fill:url(#SVGID_1_);}
	.st2{fill:url(#SVGID_00000121975164468271974080000012124955670119960730_);}
	.st3{fill:url(#SVGID_00000104695107626772355450000016235673407762893757_);}
</style>
<path class="st0" d="M245.3,171.5l-0.4-0.7C245,171,245.2,171.2,245.3,171.5z"/>
<path class="st0" d="M169.8,224.3c-9.5,0-14.3-5.3-14.3-14.1v-26.3c0-8.8,4.8-14.1,14.3-14.1h40.9c9.5,0,14.3,5.3,14.3,14.1v26.3
	c0,8.8-4.8,14.1-14.3,14.1H169.8z M172.7,213.6h35.2c2.8,0,4.9-1.1,4.9-4.2v-24.6c0-3.2-2.1-4.2-4.9-4.2h-35.2
	c-2.8,0-4.9,1.1-4.9,4.2v24.6C167.7,212.5,169.8,213.6,172.7,213.6z"/>
<path class="st0" d="M144.7,170.1c0.8,0,1.2,0.5,1.2,1.2v51.4c0,0.8-0.5,1.2-1.2,1.2h-9.9c-0.8,0-1.2-0.5-1.2-1.2v-20.3H90.5v20.3
	c0,0.8-0.4,1.2-1.2,1.2h-9.9c-0.8,0-1.2-0.5-1.2-1.2v-51.4c0-0.8,0.5-1.2,1.2-1.2h9.9c0.8,0,1.2,0.5,1.2,1.2v20.3h43.1v-20.3
	c0-0.8,0.4-1.2,1.2-1.2H144.7z"/>
<path class="st0" d="M52.1,193c11.9,0.6,16.6,6.6,16.6,16.1c0,10.9-5.5,15.2-16.9,15.2H15.5c-11.1,0-15.5-5-15.5-13.9
	c0-1.2,0.6-1.8,1.9-1.8h7.9c1.3,0,1.9,0.7,2.2,1.8c0.5,2.1,2.5,3.2,4.8,3.2h34.5c3.5,0,5.4-1.5,5.4-4.9c0-2.5-0.3-5.6-5.6-5.8
	l-34.5-1.8C4.7,200.5,0,194.5,0,185c0-10.9,5.5-15.2,16.9-15.2H52c11.1,0,15.5,5,15.5,13.9c0,1.2-0.6,1.8-1.9,1.8h-7.9
	c-1.3,0-2-0.7-2.2-1.8c-0.5-2.2-2.5-3.2-4.8-3.2H17.4c-3.5,0-5.4,1.5-5.4,4.9c0,2.5,0.3,5.6,5.6,5.8L52.1,193z"/>
<path d="M326.1,247c0.5,0,0.7,0.2,0.7,0.7v33.6c0,0.5-0.2,0.7-0.7,0.7h-1.9c-0.5,0-0.7-0.2-0.7-0.7V266h-35.1v15.2
	c0,0.5-0.2,0.7-0.7,0.7h-1.9c-0.5,0-0.7-0.2-0.7-0.7v-33.6c0-0.5,0.2-0.7,0.7-0.7h1.9c0.5,0,0.7,0.2,0.7,0.7V263h35.1v-15.3
	c0-0.5,0.2-0.7,0.7-0.7H326.1z"/>
<path d="M276.5,257.4c-0.4,0-0.6-0.2-0.6-0.6v-0.6c0-4.4-1.9-6.2-6.4-6.2H244c-4.4,0-6.3,1.8-6.3,6.2v16.8c0,4.4,1.9,6.3,6.3,6.3
	h25.4c4.5,0,6.4-1.8,6.4-5.4v-0.3c0-0.4,0.2-0.6,0.6-0.6h2.2c0.4,0,0.5,0.2,0.5,0.6v0.7c0,5.2-3,8.1-9.1,8.1h-26.5
	c-6.2,0-9.2-3-9.2-8.9v-17.6c0-5.9,3-8.9,9.2-8.9H270c6.2,0,9.1,2.9,9.1,8.9v1.1c0,0.4-0.1,0.6-0.5,0.6H276.5z"/>
<path d="M228.2,281c0.4,0.6,0,1-0.6,1h-1.9c-0.4,0-0.7-0.1-0.9-0.5l-6.3-9.6h-28.2v9.4c0,0.5-0.2,0.7-0.7,0.7h-1.9
	c-0.5,0-0.7-0.2-0.7-0.7v-33.6c0-0.5,0.2-0.7,0.7-0.7h31.2c6.2,0,9.2,2.9,9.2,8.9v7.1c0,4.9-2,7.8-6.1,8.6L228.2,281z M190.3,250.1
	v18.7h28.2c4.5,0,6.3-1.8,6.3-6.2v-6.2c0-4.4-1.8-6.2-6.3-6.2H190.3z"/>
<path d="M181.6,281.2c0.4,0.5,0,0.8-0.5,0.8h-2.3c-0.5,0-0.7-0.2-1.1-0.8l-3.9-6h-32.9l-3.9,6c-0.4,0.5-0.5,0.8-1,0.8h-2.3
	c-0.5,0-0.8-0.2-0.5-0.8l21.9-33.4c0.3-0.5,0.5-0.8,1-0.8h2.6c0.4,0,0.6,0.3,0.9,0.8L181.6,281.2z M142.8,272.2h29.1l-14.3-21.8
	h-0.5L142.8,272.2z"/>
<path d="M127.5,279c0.5,0,0.8,0.2,0.8,0.8v1.5c0,0.5-0.2,0.8-0.8,0.8H88.7c-0.5,0-0.7-0.2-0.7-0.7v-33.6c0-0.5,0.2-0.7,0.7-0.7h38.6
	c0.5,0,0.8,0.2,0.8,0.8v1.6c0,0.5-0.3,0.8-0.8,0.8h-36V263h35.5c0.5,0,0.8,0.2,0.8,0.8v1.6c0,0.5-0.2,0.8-0.8,0.8H91.3V279H127.5z"
	/>
<path d="M72,263.8c6,0.4,9.8,3,9.8,9.2c0,6.2-3.3,9.2-9.6,9.2H47.7c-6.3,0-9-3-9-8c0-0.5,0.2-0.8,0.8-0.8h1.8c0.5,0,0.7,0.2,0.8,0.8
	c0.4,3.3,1.9,4.9,6.4,4.9h23.4c4.5,0,6.8-1.8,6.8-6.1c0-4.5-2.7-6-6.8-6.3l-23.2-1.5c-6-0.4-9.8-3-9.8-9.3c0-6.2,3.4-9.1,9.6-9.1H72
	c6.3,0,9.1,2.9,9.1,7.9c0,0.5-0.2,0.8-0.8,0.8h-1.8c-0.5,0-0.7-0.2-0.8-0.8c-0.3-3.2-1.8-4.9-6.4-4.9H48.7c-4.5,0-6.8,1.8-6.8,6.1
	c0,4.6,2.7,6.1,6.8,6.3L72,263.8z"/>
<path class="st0" d="M366.4,170.1H355c-0.9,0-1.4,0.5-1.8,1.4l-21.8,38.3h-1l-24.1-38.3c-0.5-0.8-0.9-1.4-1.8-1.4h-10.6
	c-0.9,0-1.2,0.5-1.8,1.4l-24.1,38.3h-1L248,176.2l-2.7-4.7l-0.4-0.7L231.3,147c20-14.8,33-38.7,33-65.5c0-45-36.5-81.5-81.5-81.5
	c-45,0-81.5,36.5-81.5,81.5s36.5,81.5,81.5,81.5c13.8,0,26.9-3.5,38.3-9.5l10.4,18.2l6,10.5l23.1,40.6c0.5,0.8,0.9,1.2,1.8,1.2h10.1
	c0.8,0,1.2-0.5,1.7-1.2l25.1-40.3l25.1,40.3c0.5,0.8,0.9,1.2,1.7,1.2h10.1c0.8,0,1.3-0.5,1.8-1.2l29.1-51.1
	C367.5,170.7,367.2,170.1,366.4,170.1z M113.6,81.5c0-38.3,31-69.3,69.3-69.3c38.3,0,69.3,31,69.3,69.3s-31,69.3-69.3,69.3
	C144.6,150.8,113.6,119.8,113.6,81.5z"/>
<linearGradient id="SVGID_1_" gradientUnits="userSpaceOnUse" x1="147.7342" y1="240.9615" x2="219.6422" y2="165.9717" gradientTransform="matrix(1 0 0 -1 0 284)">
	<stop  offset="0" style="stop-color:#B4EC97"/>
	<stop  offset="1" style="stop-color:#57A62F"/>
</linearGradient>
<path class="st1" d="M190.9,66.6c-30-12.3-32.4-22.9-29.8-26.7c-26.2,12.3-18,39,10.8,50.3c23,9,33.6,25.3,36,32.4
	C224.8,111.8,228.4,82,190.9,66.6z"/>
<linearGradient id="SVGID_00000157292570596264008280000017358745656429456293_" gradientUnits="userSpaceOnUse" x1="157.0446" y1="181.0565" x2="190.9446" y2="149.2115" gradientTransform="matrix(1 0 0 -1 0 284)">
	<stop  offset="0" style="stop-color:#B33332"/>
	<stop  offset="1" style="stop-color:#471313"/>
</linearGradient>
<path style="fill:url(#SVGID_00000157292570596264008280000017358745656429456293_);" d="M180.1,141.6c-8.2-25.9-27.4-29.6-36-28.2
	c25.9-27.1,49.1-2.4,57.5,13.4L180.1,141.6z"/>
<linearGradient id="SVGID_00000048480902478783920200000012199694551554251197_" gradientUnits="userSpaceOnUse" x1="190.855" y1="262.5948" x2="190.855" y2="225.6134" gradientTransform="matrix(1 0 0 -1 0 284)">
	<stop  offset="0" style="stop-color:#D59315"/>
	<stop  offset="1" style="stop-color:#F0BC59"/>
</linearGradient>
<circle style="fill:url(#SVGID_00000048480902478783920200000012199694551554251197_);" cx="190.9" cy="39.9" r="18.5"/>
</svg>
