<svg width="48" height="50" viewBox="0 0 48 50" fill="none" xmlns="http://www.w3.org/2000/svg">
<path d="M46.7143 1H15.8571V11.8571H1V49H35.2857V39.8571H46.7143V1Z" stroke="#5F0F58"/>
<path d="M33.7056 23.72V23.1943C33.7056 22.6686 33.8458 22.213 34.1261 21.8274C34.4065 21.4244 34.7658 21.0652 35.2039 20.7497C35.6595 20.4168 36.1151 20.1101 36.5707 19.8297C37.2541 19.3741 37.8587 18.9185 38.3844 18.4629C38.9277 18.0073 39.1993 17.4815 39.1993 16.8857C39.1993 16.4126 39.0153 16.0446 38.6473 15.7817C38.2968 15.5189 37.8061 15.3874 37.1753 15.3874C36.597 15.3874 36.1414 15.4838 35.8084 15.6766C35.493 15.8694 35.2652 16.1147 35.125 16.4126C35.0023 16.7105 34.941 17.0084 34.941 17.3063V18.0423H33.8896C33.872 17.9547 33.8545 17.8408 33.837 17.7006C33.8195 17.5604 33.8107 17.429 33.8107 17.3063C33.8107 16.6054 33.9684 16.0446 34.2839 15.624C34.5993 15.1859 35.0111 14.8705 35.5193 14.6777C36.045 14.4674 36.6145 14.3623 37.2279 14.3623C37.7886 14.3623 38.3056 14.4499 38.7787 14.6252C39.2519 14.7829 39.6286 15.0457 39.909 15.4137C40.2069 15.7817 40.3559 16.2724 40.3559 16.8857C40.3559 17.3238 40.2507 17.7269 40.0404 18.0949C39.8477 18.4629 39.5848 18.8046 39.2519 19.12C38.9364 19.4179 38.5859 19.6983 38.2004 19.9612C37.8149 20.224 37.4294 20.4781 37.0439 20.7234C36.5357 21.0564 36.0713 21.3806 35.6507 21.696C35.2477 21.9939 35.0023 22.3094 34.9147 22.6423H40.4084V23.72H33.7056Z" fill="#5F0F58"/>
<path d="M10.9194 35.2857V21.4594H11.8394L11.9971 23.7988H12.1811C12.6017 23.0803 13.0573 22.5283 13.548 22.1428C14.0387 21.7573 14.5644 21.4944 15.1251 21.3543C15.6859 21.2141 16.2817 21.144 16.9126 21.144C17.8939 21.144 18.7263 21.3455 19.4097 21.7485C20.0931 22.1341 20.5575 22.8175 20.8029 23.7988H20.9606C21.3461 23.0979 21.7754 22.5634 22.2486 22.1954C22.7392 21.8099 23.265 21.5383 23.8257 21.3805C24.3865 21.2228 24.9735 21.144 25.5869 21.144C26.428 21.144 27.164 21.2842 27.7949 21.5645C28.4257 21.8274 28.9164 22.2743 29.2669 22.9051C29.6173 23.536 29.7926 24.3946 29.7926 25.4811V35.2857H28.5309V25.4811C28.5309 24.8152 28.4432 24.272 28.268 23.8514C28.1103 23.4308 27.8737 23.1066 27.5583 22.8788C27.2604 22.651 26.9187 22.4933 26.5332 22.4057C26.1476 22.3181 25.7271 22.2743 25.2714 22.2743C24.5354 22.2743 23.8432 22.4583 23.1949 22.8263C22.5465 23.1943 22.012 23.7375 21.5914 24.456C21.1884 25.1569 20.9869 26.0243 20.9869 27.0583V35.2857H19.7251V25.4811C19.7251 24.8152 19.6375 24.272 19.4623 23.8514C19.3046 23.4308 19.0768 23.1066 18.7789 22.8788C18.4985 22.651 18.1655 22.4933 17.78 22.4057C17.412 22.3181 17.0177 22.2743 16.5971 22.2743C15.8436 22.2743 15.1251 22.4583 14.4417 22.8263C13.7758 23.1943 13.2326 23.7375 12.812 24.456C12.3914 25.1569 12.1811 26.0243 12.1811 27.0583V35.2857H10.9194Z" fill="#5F0F58"/>
</svg>
