<svg width="48" height="48" viewBox="0 0 48 48" fill="none" xmlns="http://www.w3.org/2000/svg">
<path d="M45.7563 23.0586V17.741C45.7562 17.5536 45.6818 17.374 45.5493 17.2415C45.4168 17.109 45.2372 17.0346 45.0498 17.0344H44.3445V3.72335C44.3444 2.98688 44.1259 2.26699 43.7166 1.65469C43.3074 1.04239 42.7258 0.565174 42.0454 0.283384C41.3649 0.00159393 40.6162 -0.07212 39.8939 0.0715621C39.1716 0.215244 38.5081 0.56987 37.9873 1.0906L37.0082 2.06966C36.0241 1.32731 34.8051 0.965166 33.5753 1.0498C32.3454 1.13443 31.1875 1.66016 30.3143 2.53032C30.2487 2.5959 30.1966 2.67378 30.161 2.75951C30.1255 2.84524 30.1072 2.93713 30.1072 3.02994C30.1072 3.12274 30.1255 3.21464 30.161 3.30037C30.1966 3.3861 30.2487 3.46398 30.3143 3.52956L36.5476 9.7624C36.6131 9.82805 36.691 9.88013 36.7767 9.91567C36.8624 9.9512 36.9542 9.96949 37.047 9.96949C37.1398 9.96949 37.2316 9.9512 37.3173 9.91567C37.403 9.88013 37.4809 9.82805 37.5464 9.7624C38.4168 8.88943 38.9428 7.7316 39.0278 6.50179C39.1127 5.27197 38.7508 4.05282 38.0087 3.0685L38.9878 2.08944C39.3109 1.76632 39.7227 1.54629 40.1709 1.45715C40.6192 1.36801 41.0838 1.41378 41.506 1.58866C41.9282 1.76354 42.2891 2.05968 42.543 2.43965C42.797 2.81961 42.9326 3.26634 42.9326 3.72335V17.0361H42.2265C42.0392 17.0362 41.8595 17.1106 41.727 17.2431C41.5945 17.3756 41.5201 17.5552 41.52 17.7426V23.0129H30.9506C30.7686 21.825 30.1345 20.7534 29.1808 20.022C28.2272 19.2906 27.0278 18.9561 25.8333 19.0882C25.7395 18.5691 25.5336 18.0768 25.2299 17.6454C24.9263 17.2141 24.5323 16.8541 24.0752 16.5907C23.6182 16.3272 23.1093 16.1666 22.5838 16.1201C22.0584 16.0735 21.5291 16.1421 21.0329 16.321C20.4886 15.3217 19.6286 14.5309 18.5873 14.072C17.546 13.6131 16.382 13.5121 15.2772 13.7848C14.1724 14.0574 13.1891 14.6883 12.4808 15.5789C11.7725 16.4696 11.3792 17.5697 11.3623 18.7075C10.2418 18.8026 9.1891 19.2839 8.38425 20.0692C7.5794 20.8546 7.07238 21.8951 6.94987 23.0129H2.7252C2.0027 23.0138 1.31003 23.3012 0.799137 23.8121C0.288248 24.323 0.000854785 25.0156 0 25.7381V28.1125C0.000106966 28.2998 0.0745794 28.4795 0.207057 28.612C0.339535 28.7444 0.519182 28.8189 0.706534 28.819H2.39939L5.50814 40.9714C5.66575 41.5887 5.98747 42.1518 6.43918 42.601C6.89089 43.0502 7.45575 43.3688 8.07387 43.523L7.27205 47.1409C7.24929 47.2441 7.24997 47.3511 7.27406 47.4541C7.29814 47.5571 7.34501 47.6533 7.41122 47.7357C7.47742 47.8182 7.56128 47.8847 7.6566 47.9304C7.75193 47.9762 7.8563 47.9999 7.96203 48H10.527C10.6547 48 10.7801 47.9654 10.8898 47.8998C10.9994 47.8341 11.0892 47.74 11.1495 47.6274L13.2929 43.6304H34.707L36.85 47.6274C36.9104 47.74 37.0003 47.8341 37.11 47.8997C37.2197 47.9654 37.3451 48 37.4729 48H40.0379C40.1436 47.9999 40.248 47.9762 40.3433 47.9304C40.4386 47.8847 40.5225 47.8182 40.5887 47.7357C40.6549 47.6533 40.7018 47.5571 40.7258 47.4541C40.7499 47.3511 40.7506 47.2441 40.7278 47.1409L39.926 43.523C40.5441 43.3688 41.109 43.0502 41.5607 42.601C42.0124 42.1518 42.3341 41.5887 42.4918 40.9714L45.5985 28.819H47.2917C47.4791 28.8189 47.6587 28.7444 47.7912 28.612C47.9237 28.4795 47.9982 28.2998 47.9983 28.1125V25.7381C47.9972 25.0997 47.7723 24.4819 47.3626 23.9923C46.953 23.5027 46.3845 23.1722 45.7563 23.0586ZM36.9994 8.2165L31.8602 3.07738C32.5727 2.59787 33.4296 2.38091 34.2844 2.46364C35.1392 2.54637 35.9386 2.92365 36.5458 3.5309C37.1531 4.13814 37.5304 4.93757 37.6131 5.79235C37.6958 6.64712 37.4789 7.50407 36.9994 8.2165ZM42.9314 18.4491H44.3445V23.0113H42.9314V18.4491ZM11.7632 20.1044C11.8621 20.1044 11.9598 20.1117 12.0567 20.1198C12.1626 20.1294 12.2693 20.1148 12.3687 20.0768C12.4681 20.0389 12.5575 19.9787 12.63 19.901C12.7029 19.8236 12.7574 19.7308 12.7896 19.6294C12.8217 19.5281 12.8307 19.4208 12.8157 19.3155C12.6832 18.4 12.8953 17.4678 13.4109 16.6996C13.9265 15.9315 14.7089 15.3821 15.6064 15.1579C16.504 14.9337 17.4528 15.0507 18.269 15.4861C19.0852 15.9216 19.7108 16.6445 20.0244 17.5149C20.0605 17.6145 20.1186 17.7048 20.1943 17.7789C20.2701 17.853 20.3615 17.9092 20.4619 17.9432C20.5623 17.9772 20.669 17.9882 20.7742 17.9753C20.8794 17.9625 20.9804 17.9261 21.0696 17.869C21.4043 17.6546 21.7905 17.5344 22.1877 17.5207C22.5849 17.5071 22.9784 17.6007 23.3269 17.7916C23.6755 17.9825 23.9662 18.2638 24.1686 18.6058C24.371 18.9478 24.4776 19.338 24.4772 19.7354C24.4772 19.7823 24.4731 19.8283 24.4687 19.8945C24.4602 20.0094 24.4799 20.1246 24.5261 20.2301C24.5723 20.3356 24.6436 20.4283 24.7338 20.4999C24.824 20.5716 24.9304 20.6201 25.0436 20.6412C25.1569 20.6624 25.2736 20.6555 25.3835 20.6212C25.8121 20.4883 26.2636 20.4457 26.7095 20.4959C27.1554 20.5462 27.5861 20.6882 27.9744 20.9131C28.3627 21.1381 28.7001 21.441 28.9656 21.8028C29.231 22.1646 29.4186 22.5775 29.5166 23.0154H8.37667C8.50085 22.2053 8.91086 21.4663 9.53252 20.9323C10.1542 20.3982 10.9464 20.1043 11.766 20.1036L11.7632 20.1044ZM10.1026 46.5849H8.84056L9.49582 43.6268H11.6881L10.1026 46.5849ZM37.8957 46.5849L36.3102 43.6268H38.5021L39.1577 46.5849H37.8957ZM41.1231 40.6193C41.0065 41.0755 40.7413 41.4798 40.3694 41.7685C39.9975 42.0572 39.5401 42.2138 39.0693 42.2137H8.92897C8.45816 42.2139 8.00068 42.0573 7.62878 41.7686C7.25687 41.4799 6.99172 41.0755 6.87518 40.6193L3.85808 28.819H44.1398L41.1231 40.6193ZM46.5852 27.406H1.41307V25.7381C1.4135 25.3903 1.55187 25.0568 1.79785 24.8108C2.04384 24.5648 2.37733 24.4264 2.7252 24.426H45.2731C45.6209 24.4264 45.9544 24.5648 46.2004 24.8108C46.4464 25.0568 46.5848 25.3903 46.5852 25.7381V27.406Z" fill="#5F0F58"/>
<path d="M31.4727 7.60698L30.9963 8.08338C30.8752 8.21785 30.8102 8.39369 30.8149 8.57463C30.8196 8.75557 30.8936 8.92781 31.0215 9.05582C31.1495 9.18383 31.3217 9.25785 31.5026 9.26262C31.6836 9.26738 31.8594 9.20252 31.994 9.08141L32.4708 8.60501C32.5928 8.47064 32.6584 8.29448 32.654 8.11304C32.6496 7.9316 32.5756 7.7588 32.4473 7.63047C32.3189 7.50213 32.1462 7.42811 31.9647 7.42373C31.7833 7.41936 31.6071 7.48498 31.4727 7.60698ZM29.2118 11.572C29.3047 11.5722 29.3966 11.5539 29.4824 11.5184C29.5682 11.4828 29.6461 11.4307 29.7117 11.3649L30.1881 10.8885C30.3206 10.756 30.395 10.5763 30.395 10.3889C30.395 10.2015 30.3206 10.0218 30.1881 9.88928C30.0556 9.75678 29.8758 9.68233 29.6884 9.68233C29.501 9.68233 29.3213 9.75678 29.1888 9.88928L28.712 10.3661C28.6132 10.4649 28.546 10.5908 28.5188 10.7279C28.4916 10.8649 28.5056 11.007 28.5591 11.136C28.6126 11.2651 28.7032 11.3754 28.8193 11.453C28.9355 11.5306 29.0721 11.5721 29.2118 11.572ZM26.9049 12.1732L26.4285 12.65C26.361 12.7152 26.3072 12.7932 26.2702 12.8794C26.2332 12.9656 26.2137 13.0583 26.2129 13.1521C26.2121 13.2459 26.23 13.339 26.2656 13.4258C26.3011 13.5126 26.3536 13.5915 26.4199 13.6578C26.4863 13.7241 26.5652 13.7766 26.652 13.8121C26.7389 13.8476 26.8319 13.8655 26.9257 13.8646C27.0195 13.8638 27.1122 13.8443 27.1984 13.8072C27.2846 13.7702 27.3626 13.7163 27.4277 13.6489L27.9041 13.1724C27.9698 13.1068 28.0218 13.0289 28.0573 12.9432C28.0928 12.8575 28.1111 12.7656 28.1111 12.6728C28.1111 12.58 28.0928 12.4882 28.0573 12.4024C28.0218 12.3167 27.9698 12.2388 27.9041 12.1732C27.8385 12.1076 27.7606 12.0555 27.6749 12.02C27.5892 11.9845 27.4973 11.9663 27.4045 11.9663C27.3117 11.9663 27.2199 11.9845 27.1341 12.02C27.0484 12.0555 26.9705 12.1076 26.9049 12.1732ZM33.6973 11.4764C33.8104 11.4765 33.9219 11.4494 34.0223 11.3975C34.1228 11.3456 34.2093 11.2703 34.2747 11.178L34.6639 10.6277C34.7192 10.5521 34.7589 10.4662 34.7807 10.375C34.8026 10.2838 34.806 10.1893 34.7909 10.0968C34.7758 10.0042 34.7425 9.91567 34.6928 9.83618C34.6432 9.75669 34.5782 9.68787 34.5016 9.63374C34.4251 9.57961 34.3386 9.54125 34.2471 9.52089C34.1556 9.50053 34.061 9.49857 33.9687 9.51514C33.8765 9.53171 33.7884 9.56647 33.7097 9.61739C33.6311 9.66832 33.5633 9.73439 33.5104 9.81177L33.1208 10.3621C33.0459 10.4678 33.0015 10.592 32.9926 10.7212C32.9836 10.8505 33.0103 10.9797 33.0698 11.0947C33.1294 11.2098 33.2194 11.3062 33.3301 11.3735C33.4407 11.4408 33.5678 11.4764 33.6973 11.4764ZM31.6447 12.4485L31.2555 12.9984C31.2019 13.0742 31.1638 13.1597 31.1432 13.2502C31.1227 13.3407 31.1202 13.4343 31.1358 13.5258C31.1674 13.7105 31.2711 13.8751 31.4241 13.9833C31.577 14.0916 31.7667 14.1347 31.9515 14.103C32.1362 14.0714 32.3007 13.9677 32.409 13.8148L32.7982 13.2645C32.9029 13.1114 32.9432 12.9233 32.9104 12.7408C32.8776 12.5583 32.7744 12.396 32.623 12.2889C32.4716 12.1818 32.2842 12.1385 32.1012 12.1684C31.9182 12.1983 31.7542 12.2989 31.6447 12.4485ZM29.3079 7.08616C29.454 7.08631 29.5965 7.04102 29.7157 6.95656L30.2656 6.56736C30.4142 6.45757 30.5139 6.29391 30.5433 6.11147C30.5727 5.92902 30.5295 5.74232 30.4229 5.59139C30.3162 5.44045 30.1547 5.3373 29.973 5.30405C29.7912 5.27079 29.6036 5.31008 29.4504 5.41349L28.9002 5.80269C28.7776 5.88931 28.6859 6.01268 28.6381 6.15495C28.5904 6.29721 28.5892 6.45097 28.6347 6.59395C28.6803 6.73693 28.7701 6.86171 28.8913 6.9502C29.0125 7.0387 29.1587 7.08632 29.3087 7.08616H29.3079ZM26.6715 8.95181C26.8175 8.9519 26.9598 8.90661 27.0789 8.82222L27.6292 8.43261C27.7049 8.37901 27.7694 8.31102 27.8188 8.23251C27.8683 8.15401 27.9018 8.06653 27.9175 7.97507C27.9331 7.88361 27.9306 7.78997 27.9101 7.69948C27.8895 7.609 27.8514 7.52344 27.7978 7.44771C27.7442 7.37197 27.6762 7.30753 27.5977 7.25807C27.5191 7.20861 27.4317 7.1751 27.3402 7.15945C27.2488 7.14379 27.1551 7.14631 27.0646 7.16685C26.9741 7.18738 26.8886 7.22554 26.8128 7.27915L26.2626 7.66835C26.14 7.75498 26.0482 7.87839 26.0005 8.02069C25.9528 8.163 25.9517 8.31679 25.9972 8.45979C26.0428 8.6028 26.1327 8.72757 26.2539 8.81603C26.3752 8.9045 26.5215 8.95206 26.6715 8.95181Z" fill="#5F0F58"/>
</svg>
