<svg width="69" height="48" viewBox="0 0 69 48" fill="none" xmlns="http://www.w3.org/2000/svg">
<path d="M68.9737 38.3108V17.3414C68.9737 17.1401 68.8938 16.9471 68.7514 16.8048C68.6091 16.6624 68.4161 16.5825 68.2148 16.5825H59.0241V10.5808H62.3265C62.4399 10.5808 62.5519 10.5553 62.6542 10.5063C62.7565 10.4573 62.8465 10.386 62.9176 10.2976C62.9887 10.2092 63.039 10.106 63.065 9.99556C63.0909 9.88514 63.0918 9.77031 63.0675 9.6595L61.3653 1.89498C61.2452 1.35912 60.9468 0.879869 60.519 0.535634C60.0911 0.191398 59.5591 0.00255511 59.0099 0H54.327C53.7779 0.00262244 53.2459 0.191463 52.8181 0.535643C52.3903 0.879823 52.0918 1.35898 51.9717 1.89476L50.2694 9.6595C50.2451 9.77031 50.246 9.88514 50.2719 9.99556C50.2979 10.106 50.3483 10.2092 50.4194 10.2976C50.4905 10.386 50.5805 10.4573 50.6827 10.5063C50.785 10.5553 50.897 10.5808 51.0104 10.5808H54.313V16.5825H49.2482C49.0469 16.5825 48.8539 16.6624 48.7115 16.8048C48.5692 16.9471 48.4893 17.1401 48.4893 17.3414C48.4893 17.5427 48.5692 17.7357 48.7115 17.8781C48.8539 18.0204 49.0469 18.1004 49.2482 18.1004H67.4558V24.5922H56.6688C56.4675 24.5922 56.2745 24.6722 56.1321 24.8145C55.9898 24.9568 55.9098 25.1499 55.9098 25.3512C55.9098 25.5524 55.9898 25.7455 56.1321 25.8878C56.2745 26.0301 56.4675 26.1101 56.6688 26.1101H67.4558V32.6019H58.1012C58.0005 32.6002 57.9004 32.6186 57.8069 32.656C57.7133 32.6933 57.6281 32.749 57.5563 32.8196C57.4845 32.8902 57.4274 32.9745 57.3884 33.0674C57.3495 33.1603 57.3294 33.26 57.3294 33.3608C57.3294 33.4615 57.3495 33.5613 57.3884 33.6542C57.4274 33.7471 57.4845 33.8313 57.5563 33.902C57.6281 33.9726 57.7133 34.0282 57.8069 34.0656C57.9004 34.103 58.0005 34.1213 58.1012 34.1196H61.8626C61.9246 34.1571 61.9918 34.1853 62.0619 34.2035C65.327 35.0024 65.0761 38.1051 65.0643 38.2333C65.0534 38.3389 65.0648 38.4457 65.0978 38.5466C65.1308 38.6476 65.1846 38.7405 65.2557 38.8193C65.3269 38.8982 65.4138 38.9612 65.5108 39.0044C65.6079 39.0475 65.7129 39.0698 65.8191 39.0698H68.2143C68.314 39.0699 68.4128 39.0503 68.5049 39.0122C68.597 38.974 68.6808 38.9181 68.7513 38.8477C68.8218 38.7772 68.8777 38.6935 68.9159 38.6014C68.9541 38.5093 68.9737 38.4106 68.9737 38.3108ZM53.4547 2.21996C53.4992 2.02155 53.6096 1.84407 53.7679 1.71652C53.9263 1.58897 54.1232 1.51887 54.3265 1.51768H59.0099C59.2133 1.51887 59.4102 1.58897 59.5685 1.71652C59.7269 1.84407 59.8373 2.02155 59.8818 2.21996L61.3818 9.06294H51.954L53.4547 2.21996ZM55.8305 10.5808H57.506V16.5825H55.8305V10.5808ZM66.5816 37.5519C66.4965 36.2584 65.9465 35.0393 65.0329 34.1196H67.4558V37.5519H66.5816Z" fill="#5F0F58"/>
<path d="M0.758078 47.9991H3.85317C4.04082 47.9988 4.22174 47.9292 4.36109 47.8035C4.50045 47.6778 4.58838 47.505 4.60797 47.3184C4.63151 47.095 5.23636 41.8349 9.80445 40.7902C9.8293 40.7845 9.85153 40.7743 9.87507 40.7664H45.5117C45.5335 40.7732 45.5525 40.7825 45.5745 40.7882C50.1533 41.827 50.7592 47.0954 50.7825 47.3178C50.8015 47.5048 50.8892 47.6782 51.0287 47.8042C51.1682 47.9303 51.3495 48 51.5376 48H54.6326C54.7323 48 54.831 47.9804 54.9231 47.9423C55.0151 47.9042 55.0988 47.8483 55.1693 47.7778C55.2398 47.7074 55.2957 47.6237 55.3338 47.5317C55.372 47.4396 55.3916 47.3409 55.3916 47.2413V30.5954C55.3898 29.0661 54.8218 27.5917 53.797 26.4567C51.2808 23.6569 47.8302 21.4038 46.0651 20.3456C46.3449 20.0825 46.568 19.7649 46.7204 19.4123C46.8729 19.0598 46.9517 18.6798 46.9518 18.2957C46.9517 17.6022 46.8075 16.9164 46.5285 16.2816C46.2494 15.6469 45.8415 15.077 45.3306 14.6081V10.4014C45.3293 9.2651 44.8774 8.17567 44.0738 7.37216C43.2703 6.56864 42.1809 6.11667 41.0446 6.1154H14.3466C13.2103 6.11673 12.1209 6.56873 11.3175 7.37223C10.514 8.17574 10.062 9.26514 10.0608 10.4014V14.6081C9.5499 15.077 9.14201 15.6469 8.86296 16.2816C8.58392 16.9164 8.43981 17.6023 8.43978 18.2957C8.43992 18.6798 8.51866 19.0598 8.67114 19.4123C8.82363 19.7649 9.04664 20.0825 9.32646 20.3456C7.56095 21.4038 4.1108 23.6569 1.59462 26.4567C0.569863 27.5917 0.001789 29.0661 3.1434e-08 30.5954V47.2402C-5.78292e-05 47.4413 0.0797644 47.6343 0.221919 47.7766C0.364074 47.9189 0.556926 47.9989 0.758078 47.9991ZM53.8746 39.2485H1.51703V34.3371H53.8746V39.2485ZM3.20734 46.4814H1.51703V40.7664H6.42623C4.22632 42.5337 3.45603 45.2246 3.20734 46.4814ZM52.1838 46.4814C51.9353 45.2246 51.165 42.5337 48.9651 40.7664H53.8741V46.4814H52.1838ZM44.127 19.6037H28.4554V18.5123C28.4394 17.4669 28.826 16.4553 29.5353 15.6871C30.2446 14.919 31.2222 14.453 32.2656 14.3858C32.3454 14.3817 32.4263 14.3795 32.5087 14.3795H39.1249C39.1502 14.3782 41.6097 14.2862 43.506 15.1875C44.0874 15.4718 44.5768 15.9143 44.918 16.4642C45.2593 17.014 45.4386 17.6489 45.4354 18.2961C45.4349 18.6429 45.2969 18.9753 45.0516 19.2204C44.8063 19.4655 44.4738 19.6034 44.127 19.6037ZM14.3466 7.63417H41.0454C41.7793 7.63498 42.483 7.92688 43.0019 8.44584C43.5209 8.96479 43.8128 9.66841 43.8136 10.4023V13.6644C41.7211 12.7945 39.3277 12.8533 39.0779 12.8618H32.508C32.3996 12.8618 32.2932 12.8645 32.1889 12.8699C31.2667 12.9187 30.3717 13.199 29.5865 13.685C28.8012 14.1709 28.151 14.8468 27.6958 15.6502C27.2407 14.8468 26.5906 14.171 25.8054 13.685C25.0203 13.1991 24.1254 12.9188 23.2033 12.8699C23.0986 12.8644 22.992 12.8617 22.8836 12.8618H16.3139C16.0646 12.8533 13.6707 12.7943 11.578 13.6644V10.4023C11.5788 9.66833 11.8708 8.96465 12.3898 8.44568C12.9089 7.92672 13.6126 7.63487 14.3466 7.63417ZM11.8864 15.1871C13.4571 14.4403 15.4318 14.3762 16.0635 14.3762C16.1908 14.3762 16.2634 14.3788 16.2675 14.3791H22.8836C22.966 14.3791 23.0471 14.3812 23.1271 14.3854C24.1704 14.4526 25.1479 14.9186 25.8571 15.6868C26.5663 16.455 26.9529 17.4665 26.9368 18.5119V19.6032H11.2652C10.9185 19.6028 10.5862 19.4648 10.341 19.2197C10.0959 18.9745 9.95792 18.6421 9.95746 18.2954C9.95422 17.6484 10.1335 17.0135 10.4747 16.4637C10.8159 15.9139 11.3052 15.4714 11.8864 15.1871ZM2.72259 27.4713C5.6821 24.1783 10.1813 21.5863 11.0355 21.1098C11.1114 21.1159 11.1881 21.1213 11.2648 21.1213H44.127C44.2044 21.1213 44.2796 21.1159 44.3563 21.1098C45.2105 21.5865 49.7097 24.1783 52.669 27.4713C53.4432 28.3278 53.8726 29.4408 53.8746 30.5954V32.8186H1.51703V30.5954C1.51913 29.4408 1.94858 28.3279 2.72259 27.4713Z" fill="#5F0F58"/>
<path d="M58.5138 21.9243C58.933 21.9243 59.2728 21.5846 59.2728 21.1654C59.2728 20.7462 58.933 20.4064 58.5138 20.4064C58.0947 20.4064 57.7549 20.7462 57.7549 21.1654C57.7549 21.5846 58.0947 21.9243 58.5138 21.9243Z" fill="#5F0F58"/>
<path d="M58.5138 30.2957C58.933 30.2957 59.2728 29.9559 59.2728 29.5367C59.2728 29.1176 58.933 28.7778 58.5138 28.7778C58.0947 28.7778 57.7549 29.1176 57.7549 29.5367C57.7549 29.9559 58.0947 30.2957 58.5138 30.2957Z" fill="#5F0F58"/>
</svg>
