<svg width="26" height="24" viewBox="0 0 26 24" fill="none" xmlns="http://www.w3.org/2000/svg">
<path d="M23.0014 12C23.0014 6.48 18.3934 2 12.7156 2C7.03793 2 2.42993 6.48 2.42993 12C2.42993 17.52 7.03793 22 12.7156 22" stroke="#5F0F58" stroke-width="1.5" stroke-linecap="round" stroke-linejoin="round"/>
<path d="M8.60145 3H9.63002C7.6243 8.84 7.6243 15.16 9.63002 21H8.60145" stroke="#5F0F58" stroke-width="1.5" stroke-linecap="round" stroke-linejoin="round"/>
<path d="M15.8013 3C16.799 5.92 17.303 8.96 17.303 12" stroke="#5F0F58" stroke-width="1.5" stroke-linecap="round" stroke-linejoin="round"/>
<path d="M3.4585 16V15C6.46192 15.97 9.58878 16.46 12.7156 16.46" stroke="#5F0F58" stroke-width="1.5" stroke-linecap="round" stroke-linejoin="round"/>
<path d="M3.4585 8.99998C9.46535 7.04998 15.9659 7.04998 21.9728 8.99998" stroke="#5F0F58" stroke-width="1.5" stroke-linecap="round" stroke-linejoin="round"/>
<path d="M18.9246 18C18.9026 17.9969 18.8744 17.9969 18.8493 18C18.2974 17.9817 17.8584 17.542 17.8584 17.0015C17.8584 16.4489 18.3162 16 18.887 16C19.4546 16 19.9155 16.4489 19.9155 17.0015C19.9124 17.542 19.4765 17.9817 18.9246 18Z" stroke="#5F0F58" stroke-width="1.5" stroke-linecap="round" stroke-linejoin="round"/>
<path d="M21.9727 20.8027C21.1578 21.5476 20.0773 22 18.887 22C17.6966 22 16.6162 21.5476 15.8013 20.8027C15.8471 20.3732 16.1217 19.9528 16.6116 19.6238C17.866 18.7921 19.9171 18.7921 21.1624 19.6238C21.6522 19.9528 21.9269 20.3732 21.9727 20.8027Z" stroke="#5F0F58" stroke-width="1.5" stroke-linecap="round" stroke-linejoin="round"/>
<path d="M18.887 22C21.1592 22 23.0013 20.2091 23.0013 18C23.0013 15.7909 21.1592 14 18.887 14C16.6147 14 14.7727 15.7909 14.7727 18C14.7727 20.2091 16.6147 22 18.887 22Z" stroke="#5F0F58" stroke-width="1.5" stroke-linecap="round" stroke-linejoin="round"/>
</svg>
