<svg width="64" height="64" viewBox="0 0 64 64" fill="none" xmlns="http://www.w3.org/2000/svg">
<path d="M56 15.9467C47.12 15.0667 38.1867 14.6133 29.28 14.6133C24 14.6133 18.72 14.88 13.44 15.4133L8 15.9467" stroke="#B33332" stroke-width="2" stroke-linecap="round" stroke-linejoin="round"/>
<path d="M22.6667 13.2533L23.2534 9.76001C23.6801 7.22668 24.0001 5.33334 28.5067 5.33334H35.4934C40.0001 5.33334 40.3467 7.33334 40.7467 9.78668L41.3334 13.2533" stroke="#B33332" stroke-width="2" stroke-linecap="round" stroke-linejoin="round"/>
<path d="M50.2667 24.3733L48.5334 51.2266C48.2401 55.4133 48.0001 58.6667 40.5601 58.6667H23.4401C16.0001 58.6667 15.7601 55.4133 15.4667 51.2266L13.7334 24.3733" stroke="#B33332" stroke-width="2" stroke-linecap="round" stroke-linejoin="round"/>
<path d="M27.5466 44H36.4266" stroke="#B33332" stroke-width="2" stroke-linecap="round" stroke-linejoin="round"/>
<path d="M25.3333 33.3333H38.6666" stroke="#B33332" stroke-width="2" stroke-linecap="round" stroke-linejoin="round"/>
</svg>
