<svg width="437" height="432" viewBox="0 0 437 432" fill="none" xmlns="http://www.w3.org/2000/svg">
<g clip-path="url(#clip0_149_814)">
<path d="M102.25 291.1C100.98 291.1 99.72 291.09 98.45 291.06L98.47 290.09C102.21 290.18 106 290.13 109.94 289.97L109.98 290.94C107.36 291.05 104.75 291.11 102.25 291.11V291.1ZM86.94 290.36C83.05 289.97 79.2 289.41 75.52 288.69L75.7 287.74C79.35 288.45 83.17 289 87.03 289.4L86.93 290.36H86.94ZM121.48 290.12L121.39 289.16C125.04 288.81 128.87 288.34 132.79 287.79L132.93 288.75C129 289.31 125.15 289.77 121.49 290.13L121.48 290.12ZM144.29 286.93L144.12 285.98C147.56 285.37 151.25 284.68 155.41 283.86L155.6 284.81C151.43 285.63 147.73 286.32 144.29 286.93ZM64.31 285.94L64.04 285.86C60.57 284.81 56.67 283.35 54 280.58L54.7 279.91C57.22 282.52 60.98 283.92 64.32 284.93L64.59 285.01L64.31 285.93V285.94ZM166.88 282.53L166.68 281.59L169.78 280.95C172.5 280.39 175.22 279.82 177.95 279.27L178.14 280.22C175.42 280.78 172.7 281.34 169.98 281.9L166.88 282.54V282.53ZM374.32 280.56C373.76 280.56 373.2 280.56 372.64 280.56V279.59C373.21 279.59 373.76 279.59 374.32 279.59C377.91 279.59 381.11 279.48 384.1 279.26L384.17 280.22C381.16 280.44 377.93 280.55 374.32 280.55V280.56ZM361.12 280.23C357.43 280.07 353.67 279.87 349.63 279.61L349.69 278.65C353.73 278.91 357.48 279.11 361.16 279.27L361.12 280.24V280.23ZM338.15 278.78C334.33 278.47 330.51 278.14 326.69 277.8L326.78 276.84C330.6 277.18 334.42 277.52 338.23 277.82L338.15 278.78ZM395.62 278.64L395.41 277.7C399.33 276.85 402.97 275.67 406.23 274.19L406.63 275.07C403.31 276.58 399.6 277.78 395.62 278.64ZM189.42 277.98L189.24 277.03C193.34 276.25 197.05 275.59 200.58 275.02L200.74 275.97C197.22 276.55 193.53 277.2 189.43 277.98H189.42ZM315.24 276.73L312.84 276.5C309.82 276.21 306.81 275.93 303.79 275.64L303.88 274.68C306.9 274.96 309.91 275.25 312.93 275.54L315.33 275.77L315.24 276.73ZM292.34 274.61C288.22 274.25 284.47 273.95 280.88 273.69L280.95 272.73C284.54 272.99 288.29 273.3 292.42 273.65L292.34 274.61ZM212.1 274.32L211.98 273.36C213.78 273.13 215.58 272.93 217.38 272.74C219.37 272.53 221.4 272.35 223.44 272.19L223.52 273.15C221.49 273.31 219.46 273.5 217.48 273.7C215.68 273.89 213.89 274.1 212.1 274.32ZM269.42 272.95C265.38 272.73 261.62 272.57 257.94 272.46L257.97 271.49C261.66 271.6 265.42 271.76 269.47 271.98L269.42 272.94V272.95ZM234.98 272.49L234.94 271.52C238.66 271.38 242.53 271.31 246.46 271.31V272.28C242.55 272.28 238.68 272.35 234.98 272.49ZM51.37 269.62H50.4C50.41 268.69 50.47 267.73 50.57 266.68C50.83 264.02 51.3 261.23 52.01 258.14L52.95 258.35C52.25 261.4 51.79 264.15 51.53 266.77C51.43 267.79 51.38 268.73 51.36 269.62H51.37ZM416.49 268.96L415.88 268.22C418.74 265.86 421.34 263.07 423.62 259.93L424.4 260.5C422.08 263.71 419.42 266.56 416.49 268.97V268.96ZM430.13 250.43L429.25 250.04C430.73 246.72 431.99 243.09 432.99 239.26L433.92 239.51C432.9 243.39 431.62 247.07 430.13 250.44V250.43ZM55.98 247.29L55.06 247.01L55.31 246.18C56.31 242.84 57.35 239.39 58.2 235.97L59.14 236.2C58.29 239.65 57.24 243.11 56.24 246.46L55.99 247.29H55.98ZM436.11 228.16L435.15 228.03C435.63 224.36 435.93 220.52 436.03 216.61L437 216.64C436.9 220.58 436.6 224.46 436.11 228.16ZM61.1 224.81L60.14 224.73C60.3 222.85 60.39 220.93 60.39 219.03C60.39 217.14 60.31 215.22 60.14 213.33L61.1 213.25C61.26 215.17 61.35 217.11 61.35 219.03C61.35 220.96 61.27 222.91 61.1 224.81ZM435.82 205.16C435.6 201.37 435.24 197.53 434.75 193.75L435.71 193.63C436.2 197.44 436.57 201.3 436.79 205.11L435.83 205.17L435.82 205.16ZM58.19 202.08C57.22 198.39 55.93 194.77 54.35 191.34L55.23 190.94C56.83 194.42 58.14 198.09 59.13 201.84L58.2 202.08H58.19ZM432.86 182.44C432.1 178.7 431.2 174.95 430.18 171.29L431.11 171.03C432.14 174.71 433.05 178.49 433.81 182.24L432.86 182.43V182.44ZM48.8 181.36C47.03 178.57 45.11 175.8 43.26 173.11L42.38 171.83L43.18 171.28L44.06 172.56C45.92 175.25 47.83 178.04 49.62 180.84L48.81 181.36H48.8ZM36.07 162.19C35.57 161.36 35.09 160.52 34.62 159.68C33.23 157.18 31.95 154.56 30.82 151.9L31.71 151.52C32.82 154.15 34.09 156.74 35.46 159.21C35.93 160.05 36.41 160.87 36.9 161.7L36.07 162.2V162.19ZM426.69 160.37C425.4 156.78 423.96 153.2 422.42 149.73L423.3 149.34C424.85 152.83 426.3 156.43 427.6 160.05L426.69 160.38V160.37ZM27.08 140.94C26.09 137.23 25.35 133.41 24.88 129.59L25.84 129.47C26.3 133.24 27.03 137.02 28.01 140.69L27.08 140.94ZM417.36 139.43C415.53 136.06 413.56 132.75 411.5 129.58L412.31 129.05C414.39 132.24 416.37 135.58 418.21 138.97L417.36 139.43ZM404.84 120.25C402.48 117.22 399.98 114.29 397.4 111.54L398.1 110.88C400.69 113.66 403.22 116.61 405.59 119.66L404.83 120.25H404.84ZM25.24 118.06L24.27 118.04C24.34 114.17 24.69 110.3 25.31 106.53L26.26 106.69C25.65 110.41 25.3 114.24 25.24 118.06ZM389.21 103.54C386.35 101 383.35 98.59 380.29 96.37L380.86 95.59C383.94 97.83 386.96 100.26 389.85 102.82L389.21 103.54ZM28.95 95.59L28.03 95.29C28.21 94.75 28.39 94.21 28.57 93.67C29.65 90.59 30.95 87.54 32.45 84.6L33.31 85.04C31.83 87.94 30.54 90.96 29.48 93.99C29.29 94.52 29.12 95.05 28.94 95.58L28.95 95.59ZM370.7 90.12C367.58 88.29 364.28 86.51 360.61 84.67L361.04 83.81C364.73 85.66 368.05 87.45 371.18 89.29L370.69 90.12H370.7ZM350.24 79.74C346.97 78.25 343.62 76.78 340.39 75.36L339.74 75.07L340.13 74.19L340.78 74.48C344.02 75.9 347.37 77.37 350.64 78.86L350.24 79.74ZM39.25 75.29L38.47 74.73C40.71 71.6 43.21 68.62 45.89 65.86L46.58 66.53C43.93 69.25 41.47 72.2 39.25 75.29ZM329.23 70.38C325.33 68.59 321.93 66.96 318.85 65.38L319.29 64.52C322.36 66.09 325.74 67.72 329.63 69.5L329.23 70.38ZM308.76 59.8C305.3 57.71 302.16 55.62 299.16 53.4L299.73 52.62C302.7 54.82 305.82 56.9 309.25 58.97L308.75 59.8H308.76ZM55.13 58.96L54.55 58.19C57.64 55.85 60.92 53.75 64.28 51.94L64.74 52.79C61.42 54.57 58.19 56.64 55.14 58.96H55.13ZM75.2 48.25L74.89 47.33L75.35 47.18C78.9 46.01 82.56 45.1 86.02 44.27L86.24 45.21C82.81 46.03 79.16 46.93 75.65 48.09L75.19 48.24L75.2 48.25ZM290.24 46.08C287.73 43.84 285.15 41.4 281.87 38.16L282.55 37.47C285.82 40.69 288.39 43.13 290.88 45.36L290.24 46.08ZM97.41 42.35L97.13 41.43C101.32 40.17 104.68 38.83 107.69 37.19L108.15 38.04C105.08 39.71 101.67 41.09 97.41 42.36V42.35ZM117.62 31.36L117 30.62C118.55 29.32 120.11 27.95 121.61 26.63C122.96 25.44 124.31 24.25 125.68 23.08L126.3 23.82C124.93 24.98 123.59 26.17 122.24 27.35C120.73 28.68 119.18 30.05 117.61 31.36H117.62ZM273.72 30.04C270.42 26.79 267.84 24.38 265.35 22.21L265.98 21.48C268.49 23.66 271.08 26.09 274.4 29.35L273.72 30.04ZM135.52 17.08L135.02 16.26C138.15 14.36 141.62 12.6 145.33 11.03L145.71 11.92C142.04 13.47 138.62 15.2 135.52 17.08ZM256.33 15.18C253.08 12.96 249.85 11.09 246.45 9.48L246.86 8.61C250.3 10.25 253.57 12.14 256.87 14.39L256.33 15.19V15.18ZM156.48 8.07L156.2 7.15C158.88 6.34 161.67 5.58 164.75 4.84C165.62 4.63 166.49 4.43 167.36 4.23L167.57 5.17C166.7 5.37 165.84 5.57 164.98 5.78C161.92 6.52 159.14 7.27 156.48 8.08V8.07ZM235.8 5.42L235.6 5.36C232 4.31 228.25 3.44 224.45 2.76L224.62 1.81C228.45 2.49 232.23 3.37 235.86 4.43L236.06 4.49L235.79 5.42H235.8ZM178.83 2.97L178.68 2.02C182.52 1.4 186.37 0.910003 190.12 0.570003L190.21 1.53C186.48 1.86 182.66 2.35 178.84 2.97H178.83ZM213.1 1.33C209.37 1.04 205.51 0.910003 201.65 0.950003V2.74274e-06C205.53 -0.0399973 209.42 0.0900027 213.17 0.380003L213.09 1.34L213.1 1.33Z" fill="#E7E5E6"/>
<path d="M200.69 431.15C311.528 431.15 401.38 424.072 401.38 415.34C401.38 406.608 311.528 399.53 200.69 399.53C89.852 399.53 0 406.608 0 415.34C0 424.072 89.852 431.15 200.69 431.15Z" fill="#5F0F58" fill-opacity="0.15"/>
<path d="M128.97 395.19L125.31 403.53L116.51 402.56L120.76 391.41L128.97 395.19Z" fill="#F2B49D"/>
<path d="M114.93 409.25C115.18 410.31 115.49 411 115.49 411L146.3 410.52V408.16C146.3 404.44 142.51 404.59 142.51 404.59C138.67 405.36 126.16 401.85 126.16 401.85L116.85 401.28C114.23 403.85 114.46 407.23 114.92 409.25H114.93Z" fill="#221717"/>
<path d="M114.93 409.25C115.18 410.31 115.49 411 115.49 411L146.3 410.52V409.43L114.93 409.25Z" fill="#1E1313"/>
<path d="M144.24 259.22C141.85 278.12 125.12 263.87 125.12 263.87L108.72 237.63L93.1399 212.71L108.55 201.37L118.15 218.43L125.41 231.32L115.53 189.46C111.46 182.48 112.91 176.09 112.91 176.09L102.44 154.87L114.07 142.66C114.07 142.66 122.21 157.78 125.7 163.3C129.19 168.82 124.54 180.16 124.54 180.16C124.54 180.16 146.63 240.34 144.24 259.24V259.22Z" fill="#F2AE99"/>
<path d="M122.3 225.78C120.15 230.3 112.33 233.59 109.49 239.27L93.1499 212.71L108.56 201.37L122.31 225.78H122.3Z" fill="#5F0F58"/>
<path d="M121.097 150.75L105.63 150.404C104.764 150.385 104.045 151.072 104.026 151.939L103.389 180.422C103.37 181.289 104.057 182.007 104.924 182.027L120.39 182.372C121.257 182.391 121.975 181.704 121.995 180.838L122.631 152.355C122.65 151.488 121.963 150.769 121.097 150.75Z" fill="#565656"/>
<path d="M121.194 152.653L105.408 152.3L104.807 179.183L120.593 179.536L121.194 152.653Z" fill="#9E9E9E"/>
<path d="M144.97 206.16C144.97 206.16 138.36 270.95 140.12 279.32C141.88 287.69 171.85 269.62 171.85 269.62C171.85 269.62 175.82 206.16 178.46 203.51C181.1 200.87 161.71 200.87 144.97 206.15V206.16Z" fill="#FFDCFC"/>
<path d="M21.5801 184.28L83.9201 182.54L95.0101 331.88L28.5301 330.6L21.5801 184.28Z" fill="#212121"/>
<path d="M33.41 335.75H105.86C108.93 335.75 111.41 333.26 111.41 330.2V325.01H33.41C30.44 325.01 28.04 327.41 28.04 330.38C28.04 333.35 30.44 335.75 33.41 335.75Z" fill="#333333"/>
<path d="M38.8199 330.12L31.8599 183.8L21.1299 184.31L28.0899 330.63C28.2299 333.59 30.7499 335.88 33.7099 335.74C36.6699 335.6 38.9599 333.08 38.8199 330.12Z" fill="#333333"/>
<path d="M86.68 339.52H56.93C55.38 339.52 54.12 338.26 54.12 336.71V335.78H89.48V336.71C89.48 338.26 88.22 339.52 86.67 339.52H86.68Z" fill="#212121"/>
<path d="M63.6999 341.47H78.7V339.53H63.6999V341.47Z" fill="#333333"/>
<path d="M67.8999 390.97H73.6499V341.46H67.8999V390.97Z" fill="#D6D6D6"/>
<path d="M67 380.2H74.54V356.49H67V380.2Z" fill="#212121"/>
<path d="M116.01 406.86L117.65 405.4L103.41 389.42H38.9099L23.8999 404.42L25.4499 405.97L39.8199 391.61H102.43L116.01 406.86Z" fill="#212121"/>
<path d="M109.2 410.74C109.2 414.24 112.04 417.09 115.55 417.09C119.06 417.09 121.9 414.25 121.9 410.74C121.9 407.23 119.06 404.39 115.55 404.39C112.04 404.39 109.2 407.23 109.2 410.74Z" fill="#212121"/>
<path d="M112.11 410.74C112.11 412.63 113.65 414.17 115.54 414.17C117.43 414.17 118.97 412.63 118.97 410.74C118.97 408.85 117.43 407.31 115.54 407.31C113.65 407.31 112.11 408.85 112.11 410.74Z" fill="#D6D6D6"/>
<path d="M108.03 410.77C108.34 406.9 111.58 403.85 115.54 403.85C119.5 403.85 122.73 406.9 123.05 410.77H108.04H108.03Z" fill="#333333"/>
<path d="M23.9 417.09C27.4071 417.09 30.25 414.247 30.25 410.74C30.25 407.233 27.4071 404.39 23.9 404.39C20.393 404.39 17.55 407.233 17.55 410.74C17.55 414.247 20.393 417.09 23.9 417.09Z" fill="#212121"/>
<path d="M20.47 410.74C20.47 412.63 22.01 414.17 23.9 414.17C25.79 414.17 27.33 412.63 27.33 410.74C27.33 408.85 25.79 407.31 23.9 407.31C22.01 407.31 20.47 408.85 20.47 410.74Z" fill="#D6D6D6"/>
<path d="M16.3999 410.77C16.7099 406.9 19.9499 403.85 23.9099 403.85C27.8699 403.85 31.0999 406.9 31.4199 410.77H16.4099H16.3999Z" fill="#333333"/>
<path d="M79.9791 206.133L98.9783 208.093L102.363 175.287L83.3635 173.327L79.9791 206.133Z" fill="#FFBDA5"/>
<path d="M97.46 287.5C97.46 287.5 96.32 297.26 110.72 297.64C125.12 298.02 156.94 291.2 157.32 313.93C157.7 336.66 128.57 398.84 128.57 398.84L118.38 395.01L134.53 333.98C134.53 333.98 138.67 317.68 116.78 327.19C100.4 334.31 52.37 336.66 59.19 297.26C66.01 257.86 97.45 287.5 97.45 287.5H97.46Z" fill="#5F0F58"/>
<path d="M108.92 401.28L105.26 409.61L96.47 408.64L100.71 397.49L108.92 401.28Z" fill="#FFBDA5"/>
<path d="M108.52 404.92L98.3799 401.11L98.3299 401.09L114.48 340.06C114.48 340.06 120.54 328.98 96.9299 332.45C81.8999 334.66 32.3299 342.74 39.1499 303.34C39.3999 301.89 39.6899 300.53 39.9999 299.26C48.2399 266.09 77.4099 293.58 77.4099 293.58C77.4099 293.58 76.2699 303.34 90.6699 303.72C105.07 304.1 136.89 297.28 137.27 320.01C137.65 342.74 108.52 404.92 108.52 404.92Z" fill="#6B1063"/>
<path d="M94.88 415.33C95.13 416.39 95.44 417.08 95.44 417.08L126.25 416.6V414.24C126.25 410.52 122.46 410.67 122.46 410.67C118.62 411.44 106.11 407.93 106.11 407.93L96.8 407.36C94.18 409.93 94.41 413.31 94.87 415.33H94.88Z" fill="#2F1F1F"/>
<path d="M94.8799 415.33C95.1299 416.39 95.4399 417.08 95.4399 417.08L126.25 416.6V415.51L94.8799 415.33Z" fill="#1E1313"/>
<path d="M100.82 278.1C100.62 280.57 100.7 282.76 101.14 284.61L102.17 295.68C102.17 295.68 56.7 311.24 40.15 303.19C35.81 301.08 28.48 204.43 72.13 192.69C78.08 191.09 84.97 191.06 92.95 193.07C92.95 193.07 100.98 193.33 107.03 199.24C110.57 202.7 113.43 208.1 113.59 216.52C113.87 230.86 107.61 248.78 103.72 263.45C102.28 268.9 101.16 273.9 100.83 278.1H100.82Z" fill="#B33332"/>
<path d="M118.16 133.85C118.16 133.85 124.03 185.24 97.5399 187.73C71.0499 190.22 74.8999 134.75 78.0299 129.65C81.1599 124.55 110.12 116.21 118.16 133.85Z" fill="#FFBDA5"/>
<path d="M68.6199 146.01C68.8299 154.44 69.1899 163.39 73.8799 170.4C74.8699 171.88 76.1099 173.3 77.7799 173.96C79.4399 174.62 81.5899 174.31 82.6299 172.85C83.1699 172.1 83.3499 171.15 83.4499 170.24C83.8899 166.39 83.2599 162.2 85.2599 158.88C86.1399 157.41 87.4599 156.27 88.5499 154.95C91.7599 151.04 92.7299 145.42 91.0399 140.65C99.4299 143.19 108.5 143.44 117.02 141.37C119.91 140.67 122.96 139.54 124.58 137.04C125.9 135.02 126.03 132.42 125.59 130.05C124.84 125.97 122.52 122.37 119.4 119.6C119.2 119.42 118.99 119.24 118.78 119.07C118.26 118.64 117.72 118.24 117.17 117.85C116.13 117.13 115.03 116.49 113.89 115.95C113.54 115.78 113.19 115.62 112.83 115.47C102.35 111.06 88.9699 111.78 80.2399 119.46C76.4099 122.83 73.8599 128.16 75.2099 133.08C72.5399 133.28 70.3699 135.54 69.4399 138.05C68.5099 140.57 68.5599 143.32 68.6299 146.01H68.6199Z" fill="#723228"/>
<path d="M79.65 157.3C79.67 160.31 82.13 162.73 85.13 162.71C88.14 162.69 90.56 160.23 90.54 157.23C90.52 154.22 88.06 151.8 85.06 151.82C82.05 151.84 79.63 154.3 79.65 157.3Z" fill="#FFBDA5"/>
<path d="M83.9299 209.15C93.0799 212.94 103.05 209.85 106.2 202.25C106.61 201.27 106.88 200.26 107.03 199.24C100.99 193.33 92.9499 193.07 92.9499 193.07C84.9699 191.06 78.0799 191.09 72.1299 192.69C71.7799 199.24 76.3999 206.04 83.9299 209.16V209.15Z" fill="#FFBDA5"/>
<path d="M67 326.77H76.72V296.68H67V326.77Z" fill="#333333"/>
<path d="M48.8899 301.07H105.3C108.128 301.07 110.42 298.778 110.42 295.95V295.58C110.42 292.752 108.128 290.46 105.3 290.46H48.8899C46.0622 290.46 43.7699 292.752 43.7699 295.58V295.95C43.7699 298.778 46.0622 301.07 48.8899 301.07Z" fill="#333333"/>
<path d="M67 303.95H76.72V301.07H67V303.95Z" fill="#212121"/>
<path d="M110.34 155.63C110.24 157.66 110.99 159.35 112.03 159.4C113.06 159.45 113.98 157.85 114.08 155.81C114.18 153.78 113.43 152.09 112.39 152.04C111.36 151.99 110.44 153.59 110.34 155.63Z" fill="#2D2D2D"/>
<path d="M98.1701 154.22C98.0701 156.25 98.8201 157.94 99.8601 157.99C100.89 158.04 101.81 156.44 101.91 154.4C102.01 152.37 101.26 150.68 100.22 150.63C99.1901 150.58 98.2701 152.18 98.1701 154.22Z" fill="#2D2D2D"/>
<path d="M105.35 168.43C106.38 168.43 107.43 168.33 108.43 168.02C108.71 167.93 109.01 167.82 109.25 167.59C109.62 167.24 109.78 166.68 109.69 166.09C109.62 165.66 109.45 165.29 109.28 164.93L109.23 164.83C108.14 162.49 107.52 159.88 107.45 157.3C107.45 157.08 107.25 156.89 107.04 156.92C106.82 156.92 106.65 157.11 106.65 157.33C106.72 160.02 107.36 162.73 108.5 165.17L108.55 165.28C108.7 165.61 108.85 165.91 108.9 166.23C108.94 166.49 108.9 166.83 108.7 167.03C108.57 167.15 108.38 167.22 108.19 167.28C106.51 167.81 104.61 167.66 102.94 167.53C102.72 167.53 102.53 167.68 102.51 167.89C102.49 168.11 102.66 168.3 102.87 168.32C103.66 168.38 104.49 168.45 105.34 168.45L105.35 168.43Z" fill="#E09B89"/>
<path d="M112.42 171.56C112.42 171.56 106.45 174.13 99.8799 170.33C99.8799 170.33 105.13 182.86 112.42 171.56Z" fill="white"/>
<path d="M85.1001 147.82L87.9201 148.21C89.4701 136.88 93.6501 128.74 100.33 124.01C107.97 118.6 116.8 119.27 119.4 119.62C119.2 119.44 118.99 119.26 118.78 119.09C118.26 118.66 117.72 118.26 117.17 117.87C116.39 117.38 115.58 116.93 114.75 116.54C110.41 116.66 104.34 117.7 98.7201 121.67C91.3501 126.87 86.7601 135.68 85.1001 147.84V147.82Z" fill="#6B2C26"/>
<path d="M84.24 147.25L87.06 147.64C88.61 136.31 92.79 128.17 99.47 123.44C107.36 117.85 116.52 118.75 118.78 119.08C117.29 117.85 115.63 116.79 113.89 115.96C109.55 116.08 103.48 117.12 97.86 121.09C90.49 126.29 85.9 135.1 84.24 147.26V147.25Z" fill="#EAEAEA"/>
<path d="M83 165.24C83 165.24 83.06 165.28 83.09 165.3C83.76 165.73 84.49 166.05 85.26 166.22C85.3 166.22 85.34 166.24 85.38 166.25C85.64 166.3 85.9 166.34 86.17 166.37C87.1 166.45 88.01 166.33 88.87 166.03C92.25 164.88 94.92 161.09 95.29 156.39C95.76 150.49 92.43 145.4 87.85 145.02C86.14 144.88 84.5 145.41 83.09 146.45C80.73 148.18 79.02 151.31 78.73 155C78.38 159.42 80.16 163.38 82.99 165.25L83 165.24Z" fill="#CCCCCC"/>
<path d="M81.99 164.56C81.99 164.56 82.05 164.6 82.08 164.62C82.75 165.04 83.48 165.34 84.25 165.51C84.29 165.51 84.33 165.53 84.37 165.53C84.63 165.58 84.89 165.62 85.16 165.64C86.09 165.72 87 165.6 87.86 165.31C91.24 164.2 93.91 160.53 94.28 155.98C94.75 150.27 91.42 145.35 86.84 144.97C85.13 144.83 83.49 145.35 82.08 146.35C79.72 148.02 78.01 151.05 77.72 154.62C77.37 158.89 79.15 162.73 81.98 164.54L81.99 164.56Z" fill="#EAEAEA"/>
<path d="M81.99 164.56C81.99 164.56 82.05 164.6 82.08 164.62C82.77 165.03 83.5 165.33 84.25 165.51C84.29 165.51 84.33 165.53 84.37 165.53C85.13 165.7 85.92 165.74 86.71 165.63C87.12 165.58 87.52 165.48 87.9 165.36C87.88 165.34 87.87 165.33 87.86 165.31C83.46 160.85 82.35 151.4 82.08 146.36C79.72 148.03 78.01 151.06 77.72 154.63C77.37 158.9 79.15 162.74 81.98 164.55L81.99 164.56Z" fill="#D3D3D3"/>
<path d="M104.01 172.31C105.27 172.31 106.08 172.23 106.16 172.22L106.02 170.9C106.02 170.9 102.21 171.27 98.17 170.36C92.89 169.17 89.65 166.46 88.54 162.31L87.26 162.65C88.49 167.26 92.17 170.38 97.91 171.67C100.25 172.19 102.46 172.31 104.01 172.31Z" fill="#EAEAEA"/>
<path d="M102.25 172.02C102.25 173.51 103.95 174.71 106.04 174.71C108.13 174.71 109.83 173.5 109.83 172.02C109.83 170.54 108.13 169.33 106.04 169.33C103.95 169.33 102.25 170.54 102.25 172.02Z" fill="#D3D3D3"/>
<path d="M103.72 263.45C102.28 268.9 101.16 273.9 100.83 278.1C87.77 280.68 73.43 282.65 64.1 281.84C52.48 280.84 48.19 266.5 47.16 251.12C46.49 241.16 47.19 230.77 48.15 223.3C49.13 215.69 52.21 210.9 55.55 207.88C63.62 200.59 76.61 206.27 76.81 217.14C77.04 229.34 69.25 245.39 67.77 250.24C67.68 250.57 67.6 250.85 67.56 251.07C66.64 256.42 71.52 262.22 71.52 262.22C71.52 262.22 85.73 260.81 99.31 262.97C100.77 263.2 102.25 263.36 103.72 263.44V263.45Z" fill="#E52352"/>
<path d="M138 263.81C138 263.81 154.16 263.55 155.72 253.13C157.28 242.71 158.77 242.08 158.77 242.08C158.77 242.08 160.98 240.13 160.14 239.08C159.3 238.03 157.71 238.75 155.53 240.24C153.35 241.74 140.86 252.92 140.86 252.92C140.86 252.92 139.24 252.73 140.4 250.17C141.56 247.61 142.68 245.6 142.68 245.6C142.68 245.6 142.76 244.34 141.69 244C140.62 243.66 140.07 245.26 139.08 246.65C138.09 248.04 134.09 255.4 128.34 257.4L131.29 267.34L138 263.81Z" fill="#FFBDA5"/>
<path d="M131.28 267.34C124.31 270.35 84.0699 280.37 64.9399 278.72C53.3199 277.72 49.0299 263.37 47.9999 248C47.3299 238.04 48.0299 227.65 48.9899 220.18C49.9699 212.57 53.0499 207.78 56.3899 204.76C64.4599 197.47 77.4399 203.15 77.6499 214.02C77.8799 226.22 70.0899 242.27 68.6099 247.12C68.5199 247.45 68.4399 247.73 68.3999 247.95C67.4799 253.3 72.3599 259.1 72.3599 259.1C72.3599 259.1 86.5599 257.69 100.15 259.85C113.74 262.01 128.31 257.35 128.31 257.35L131.28 267.33V267.34Z" fill="#FFBDA5"/>
<path d="M68.6099 247.13C61.4299 247.08 53.1199 247.61 47.9999 248C47.3299 238.04 48.0299 227.65 48.9899 220.18C49.9699 212.57 53.0499 207.78 56.3899 204.76C64.4599 197.47 77.4399 203.15 77.6499 214.02C77.8799 226.22 70.0899 242.27 68.6099 247.12V247.13Z" fill="#5F0F58"/>
<path d="M141.79 240.66L141.07 249.81L146.93 243.87L141.79 240.66Z" fill="#EFEFEF"/>
<path d="M34.77 335.75H106.04C109.01 335.75 111.41 333.34 111.41 330.38C111.41 327.41 109 325.01 106.04 325.01H34.77V335.75Z" fill="#333333"/>
<path d="M367.34 272.6H80.45V283.45H367.34V272.6Z" fill="#5F0F58"/>
<path d="M191.55 272.6H80.45V283.45H191.55V272.6Z" fill="#5F0F58"/>
<path d="M193.94 418.16H187.06L173.27 294.82H101.96L87.14 418.16H80.95L93.46 289.3L94.04 283.45H181.89L182.41 289.3L193.94 418.16Z" fill="#989898"/>
<path d="M256.5 418.16L269.59 283.45H357.44L369.5 418.16H362.61L348.83 294.82H277.51L262.7 418.16H256.5Z" fill="#2D1854"/>
<path d="M182.41 289.3H93.46L94.04 283.45H181.89L182.41 289.3Z" fill="#898989"/>
<path d="M357.95 289.3H269.01L269.58 283.45H357.43L357.95 289.3Z" fill="#1E103F"/>
<path d="M242.1 214.55L226.29 266.86C225.87 268.25 226.91 269.65 228.36 269.65H303.49C304.45 269.65 305.29 269.02 305.56 268.1L321.08 215.79C321.49 214.4 320.45 213.01 319.01 213.01H244.17C243.22 213.01 242.38 213.63 242.1 214.55Z" fill="#E7E5E6"/>
<path d="M319.01 213.01H316.59L301.42 264.15C301.15 265.07 300.3 265.7 299.35 265.7H226.65L226.3 266.85C225.88 268.24 226.92 269.64 228.37 269.64H303.5C304.46 269.64 305.3 269.01 305.57 268.09L321.09 215.78C321.5 214.39 320.46 213 319.02 213L319.01 213.01Z" fill="#D1D1D1"/>
<path d="M304.95 272.6H222.66C221.38 272.6 220.33 271.55 220.33 270.27C220.33 268.99 221.38 267.94 222.66 267.94H304.95C306.23 267.94 307.28 268.99 307.28 270.27C307.28 271.55 306.23 272.6 304.95 272.6Z" fill="#D8D8D8"/>
<path d="M226.62 267.93H171.53C170.459 267.93 169.59 268.799 169.59 269.87V270.66C169.59 271.731 170.459 272.6 171.53 272.6H226.62C227.692 272.6 228.56 271.731 228.56 270.66V269.87C228.56 268.799 227.692 267.93 226.62 267.93Z" fill="#E7E5E6"/>
<path d="M275.06 249C279.699 249 283.46 245.239 283.46 240.6C283.46 235.961 279.699 232.2 275.06 232.2C270.421 232.2 266.66 235.961 266.66 240.6C266.66 245.239 270.421 249 275.06 249Z" fill="#FCFDFC"/>
<path d="M345.49 235.77C345.4 238.97 346.58 242.22 346.02 245.39C345.87 246.24 345.58 247.1 344.99 247.74C344.02 248.78 342.46 249 341.04 249.07C340.92 249.07 340.8 249.08 340.68 249.08C340.55 249.08 340.43 249.08 340.3 249.08C338.52 249.1 336.66 248.81 335.52 247.49C334.33 246.12 334.39 244.28 334.63 242.37C334.65 242.24 334.66 242.12 334.68 241.99C335 239.64 335.47 237.22 334.08 235.47C333.56 234.82 332.83 234.35 332.4 233.64C332.06 233.08 331.95 232.48 331.95 231.84C331.95 231.71 331.95 231.59 331.96 231.46C332.05 230.06 332.56 228.55 332.35 227.14C332.03 225.08 330.21 223.59 329.43 221.65C329.41 221.61 329.4 221.58 329.39 221.54C329.34 221.4 329.29 221.26 329.25 221.13C328.11 217.51 330.89 215.39 333.65 213.6C333.76 213.53 333.86 213.46 333.97 213.39C334.78 212.87 335.57 212.38 336.24 211.88C336.88 211.41 337.64 211.21 338.41 211.22C338.54 211.22 338.67 211.22 338.8 211.24C340.45 211.41 342.05 212.53 342.43 214.17C342.69 215.28 342.46 216.47 342.84 217.55C343.12 218.35 343.68 218.97 344.29 219.58C344.38 219.67 344.48 219.77 344.57 219.86C344.83 220.12 345.09 220.37 345.33 220.64C346.95 222.43 347.77 224.92 347.52 227.33C347.27 229.83 345.94 232.11 345.6 234.59C345.58 234.76 345.56 234.93 345.54 235.1C345.52 235.32 345.51 235.53 345.5 235.75L345.49 235.77Z" fill="#51CD6A"/>
<path d="M340.67 249.08C340.54 249.08 340.42 249.08 340.29 249.08C340.31 246.9 340.31 244.7 340.25 242.5C340.25 242.37 340.25 242.25 340.25 242.12C340.23 241.22 340.19 240.32 340.15 239.42C340.15 239.42 340.15 239.33 340.15 239.28C340.02 236.73 339.81 234.19 339.46 231.68C339.44 231.55 339.43 231.43 339.41 231.3C339.41 231.3 339.41 231.3 339.41 231.29C338.92 227.93 338.21 224.79 337.27 221.88C337.23 221.75 337.19 221.63 337.15 221.51C336.67 220.05 336.12 218.64 335.52 217.3C335.5 217.24 335.47 217.19 335.44 217.13C334.89 215.91 334.3 214.75 333.65 213.63C333.76 213.56 333.86 213.49 333.97 213.42C334.59 214.49 335.16 215.6 335.69 216.76C335.75 216.89 335.81 217.02 335.87 217.15C337.11 219.93 338.11 222.96 338.86 226.24C338.89 226.38 338.92 226.51 338.95 226.65C339.28 228.13 339.56 229.66 339.79 231.24C340.17 233.83 340.4 236.45 340.53 239.07C340.53 239.2 340.55 239.34 340.55 239.48C340.71 242.69 340.72 245.91 340.7 249.1L340.67 249.08Z" fill="#40B553"/>
<path d="M345.52 235.12C345.5 235.34 345.49 235.55 345.48 235.77C344.13 237.36 342.42 238.65 340.52 239.47C340.47 239.49 340.43 239.51 340.39 239.53C340.37 239.53 340.34 239.55 340.32 239.55C340.25 239.55 340.18 239.51 340.15 239.44C340.13 239.39 340.13 239.35 340.15 239.3C340.17 239.25 340.2 239.21 340.25 239.19C340.34 239.15 340.43 239.12 340.51 239.08C342.46 238.21 344.2 236.83 345.53 235.14L345.52 235.12Z" fill="#40B553"/>
<path d="M344.55 219.89C343.21 222.51 341.29 224.84 338.95 226.63C338.95 226.63 338.93 226.64 338.93 226.65C338.9 226.67 338.87 226.67 338.84 226.67C338.78 226.67 338.73 226.65 338.69 226.6C338.63 226.52 338.64 226.4 338.72 226.33C338.76 226.3 338.8 226.27 338.83 226.24C341.1 224.46 342.97 222.18 344.26 219.6C344.35 219.69 344.45 219.79 344.54 219.88L344.55 219.89Z" fill="#40B553"/>
<path d="M338.79 211.27C338.21 213.4 337.2 215.42 335.85 217.15C335.82 217.19 335.79 217.23 335.76 217.26C335.72 217.31 335.67 217.33 335.61 217.33C335.57 217.33 335.53 217.32 335.5 217.29C335.45 217.25 335.42 217.18 335.43 217.12C335.43 217.12 335.45 217.05 335.47 217.02C335.54 216.93 335.61 216.84 335.68 216.75C336.92 215.12 337.85 213.23 338.41 211.24C338.54 211.24 338.67 211.24 338.8 211.26L338.79 211.27Z" fill="#40B553"/>
<path d="M337.56 221.68C337.56 221.78 337.49 221.88 337.38 221.88C337.34 221.88 337.29 221.88 337.25 221.88C336.45 221.93 335.64 221.95 334.84 221.95C333.43 221.95 332.02 221.87 330.62 221.72C330.21 221.68 329.8 221.63 329.38 221.55C329.33 221.41 329.28 221.27 329.24 221.14C329.72 221.23 330.2 221.29 330.66 221.34C332.8 221.57 334.97 221.62 337.13 221.5C337.21 221.5 337.28 221.5 337.36 221.49C337.47 221.49 337.56 221.56 337.56 221.67V221.68Z" fill="#40B553"/>
<path d="M339.68 231.46C339.69 231.56 339.62 231.66 339.52 231.67C339.5 231.67 339.47 231.67 339.44 231.67C337.92 231.87 336.4 231.98 334.87 231.98C333.89 231.98 332.91 231.94 331.94 231.85C331.94 231.72 331.94 231.6 331.95 231.47C334.42 231.69 336.92 231.63 339.39 231.3C339.41 231.3 339.44 231.3 339.47 231.3C339.57 231.29 339.67 231.36 339.68 231.46Z" fill="#40B553"/>
<path d="M340.5 242.29C340.52 242.39 340.44 242.49 340.34 242.5C340.31 242.5 340.29 242.5 340.26 242.51C339.46 242.63 338.64 242.68 337.83 242.68C336.76 242.68 335.68 242.58 334.63 242.39C334.65 242.26 334.66 242.14 334.68 242.01C336.51 242.35 338.41 242.4 340.25 242.13C340.26 242.13 340.27 242.13 340.29 242.13C340.39 242.11 340.49 242.19 340.5 242.29Z" fill="#40B553"/>
<path d="M350.43 272.66H329.92L328.97 246.8H351.38L350.43 272.66Z" fill="#FF2E56"/>
<path d="M349.67 246.8L348.78 270.93H329.86L329.92 272.66H350.43L351.38 246.8H349.67Z" fill="#F22A59"/>
<path d="M351.94 245.47H328.81C328.059 245.47 327.45 246.079 327.45 246.83V247.7C327.45 248.451 328.059 249.06 328.81 249.06H351.94C352.691 249.06 353.3 248.451 353.3 247.7V246.83C353.3 246.079 352.691 245.47 351.94 245.47Z" fill="#DB2157"/>
<path d="M393.67 108.72C393.67 137.18 376.54 161.64 352.03 172.36C348.59 173.86 345.01 175.09 341.31 176.03C340.57 176.22 339.83 176.39 339.09 176.55C335.32 177.37 331.43 177.89 327.45 178.07C327.01 178.09 326.56 178.11 326.12 178.12C325.49 178.14 324.87 178.15 324.24 178.15C314.06 178.15 304.39 175.96 295.68 172.02C271.58 161.13 254.82 136.88 254.82 108.72C254.82 70.38 285.9 39.29 324.25 39.29C362.6 39.29 393.68 70.37 393.68 108.72H393.67Z" fill="#FFDCFC"/>
<path d="M266.5 148.49C266.42 161.97 277.71 156.48 280.75 154.76C281.22 154.49 281.64 154.14 281.99 153.72L297.62 134.81L312.93 116.28L301.66 105.43L292.04 118.22L284.77 127.89L297.29 95.02C301.34 89.8 300.85 84.46 300.85 84.46L311.62 68.38L303.51 57.23C303.51 57.23 295.28 68.61 291.86 72.71C288.44 76.81 290.99 86.5 290.99 86.5C290.99 86.5 266.59 132.91 266.49 148.48L266.5 148.49Z" fill="#F2AE99"/>
<path d="M287.89 123.75C289.15 127.64 295.13 131.15 296.82 136.07L312.93 116.3L301.66 105.45L287.89 123.76V123.75Z" fill="#FED027"/>
<path d="M305.198 57.817L291.796 61.539C290.971 61.768 290.488 62.6224 290.717 63.4472L297.628 88.3354C297.857 89.1602 298.712 89.6432 299.536 89.4141L312.939 85.6921C313.764 85.4631 314.247 84.6087 314.018 83.7839L307.107 58.8958C306.877 58.0709 306.023 57.588 305.198 57.817Z" fill="#565656"/>
<path d="M305.904 59.4254L291.991 63.2892L298.57 86.9825L312.484 83.1188L305.904 59.4254Z" fill="#9E9E9E"/>
<path d="M329.406 78.5642L312.039 80.3559L315.134 110.357L332.501 108.565L329.406 78.5642Z" fill="#FFBDA5"/>
<path d="M297.6 42.45C297.6 42.45 292.24 89.44 316.45 91.72C340.67 94 337.16 43.27 334.29 38.6C331.43 33.93 304.94 26.31 297.59 42.44L297.6 42.45Z" fill="#FFBDA5"/>
<path d="M301.82 63.79C301.91 65.52 301.26 66.95 300.39 66.99C299.51 67.03 298.73 65.67 298.65 63.94C298.57 62.21 299.21 60.78 300.08 60.74C300.96 60.7 301.74 62.06 301.82 63.79Z" fill="#2D2D2D"/>
<path d="M311.41 62.59C311.5 64.32 310.85 65.75 309.98 65.79C309.1 65.83 308.32 64.47 308.24 62.74C308.15 61.01 308.8 59.58 309.67 59.54C310.55 59.5 311.33 60.86 311.41 62.59Z" fill="#2D2D2D"/>
<path d="M306.06 74.66C305.18 74.66 304.29 74.58 303.44 74.31C303.2 74.23 302.95 74.14 302.74 73.94C302.43 73.64 302.29 73.17 302.37 72.67C302.43 72.31 302.57 71.99 302.72 71.68L302.76 71.59C303.69 69.6 304.21 67.39 304.27 65.19C304.27 65 304.44 64.84 304.61 64.86C304.8 64.86 304.94 65.02 304.94 65.21C304.88 67.5 304.33 69.8 303.37 71.87L303.33 71.96C303.2 72.24 303.08 72.5 303.04 72.76C303.01 72.98 303.04 73.27 303.21 73.44C303.32 73.54 303.48 73.6 303.65 73.65C305.08 74.1 306.69 73.97 308.11 73.86C308.3 73.86 308.46 73.98 308.47 74.17C308.48 74.35 308.35 74.52 308.16 74.53C307.49 74.58 306.78 74.64 306.06 74.64V74.66Z" fill="#E09B89"/>
<path d="M301.35 77.85C301.35 77.85 305.88 79.9 310.86 76.87C310.86 76.87 306.87 86.87 301.35 77.85Z" fill="white"/>
<path d="M314.46 22.78C311.33 20.76 307.55 19.95 303.83 19.79C298.2 19.54 292.22 20.83 288.16 24.73C284.6 28.15 282.93 33.21 282.83 38.14C282.79 40.21 283.01 42.32 283.79 44.24C286.18 50.06 293.23 52.66 299.52 52.43C305.81 52.2 311.82 49.87 318.03 48.79C319.24 48.58 320.68 48.5 321.48 49.43C321.96 49.99 322.07 50.78 322.16 51.52C322.79 56.71 323.85 61.85 325.31 66.88C326.5 70.97 328.66 75.61 332.86 76.33C335.36 76.76 337.94 75.55 339.69 73.71C341.44 71.87 342.47 69.47 343.26 67.05C345.01 61.68 345.73 55.97 345.35 50.33C344.92 43.99 342.75 37.23 337.46 33.71C332.63 30.49 328.16 32.15 323.04 31.07C318.75 30.16 318.38 25.3 314.49 22.79L314.46 22.78Z" fill="black"/>
<path d="M329.13 60.68C329.13 63.2 327.09 65.25 324.56 65.25C322.03 65.25 319.99 63.21 319.99 60.68C319.99 58.15 322.03 56.11 324.56 56.11C327.09 56.11 329.13 58.15 329.13 60.68Z" fill="#FFBDA5"/>
<path d="M352.04 119.51V172.36C347.92 174.16 343.59 175.57 339.1 176.55C334.9 177.47 330.57 178 326.13 178.12C325.5 178.14 324.88 178.15 324.25 178.15C314.07 178.15 304.4 175.96 295.69 172.02V119.52C295.69 111.32 300.78 104.31 307.97 101.48C310.17 100.62 312.56 100.14 315.07 100.14H332.67C335.72 100.14 338.61 100.85 341.18 102.11C347.62 105.26 352.05 111.87 352.05 119.52L352.04 119.51Z" fill="#FED027"/>
<path d="M341.17 102.1C339.32 104.17 336.7 105.47 334.04 106.34C331.2 107.27 328.25 107.8 325.27 108.04C320.83 108.4 316.15 108.05 312.3 105.81C310.95 105.02 309.23 103.37 307.96 101.47C310.16 100.61 312.55 100.13 315.06 100.13H332.66C335.71 100.13 338.6 100.84 341.17 102.1Z" fill="#FFBDA5"/>
<path d="M351.06 118.2C351.04 118.48 351.01 118.76 350.96 119.04L347.69 138.34L341.31 176.02C340.57 176.21 339.83 176.38 339.09 176.54C335.32 177.36 331.43 177.88 327.45 178.06L332.06 134.86L335.19 116.37C335.93 112.01 340.05 109.08 344.41 109.82C348.48 110.51 351.31 114.16 351.06 118.19V118.2Z" fill="#EFBC1B"/>
<path d="M350.52 115.77C350.5 116.05 350.47 116.33 350.42 116.61L347.15 135.91L339.09 176.55C334.89 177.47 330.56 178 326.12 178.12L331.52 132.44L334.65 113.95C335.39 109.6 339.51 106.66 343.87 107.4C347.94 108.09 350.77 111.74 350.52 115.77Z" fill="#FFBDA5"/>
<path d="M350.52 115.77C350.5 116.05 350.47 116.33 350.42 116.61L347.15 135.91C341.76 134.75 335.88 133.43 331.52 132.44L334.65 113.95C335.39 109.6 339.51 106.67 343.87 107.4C347.94 108.09 350.77 111.74 350.52 115.77Z" fill="#FED027"/>
<path d="M162.17 139.04L169.46 136.62C172.16 138.24 175.26 139.09 178.46 139.09C188.19 139.09 196.11 131.17 196.11 121.43C196.11 111.69 188.19 103.77 178.46 103.77C168.73 103.77 160.81 111.69 160.81 121.43C160.81 124.63 161.66 127.73 163.28 130.43L160.86 137.72C160.6 138.55 161.35 139.29 162.17 139.03V139.04ZM162.88 121.44C162.88 112.85 169.87 105.86 178.46 105.86C187.05 105.86 194.04 112.85 194.04 121.44C194.04 130.03 187.05 137.02 178.46 137.02C175.49 137.02 172.62 136.19 170.16 134.61C169.89 134.44 169.57 134.4 169.27 134.5L163.48 136.42L165.4 130.63C165.5 130.33 165.46 130.01 165.29 129.74C163.71 127.28 162.88 124.41 162.88 121.44Z" fill="#E7E5E6"/>
<path d="M203.39 153.63C193.66 153.63 185.74 161.55 185.74 171.29C185.74 181.03 193.66 188.95 203.39 188.95C206.59 188.95 209.69 188.1 212.39 186.48L219.68 188.9C220.5 189.16 221.25 188.42 220.99 187.59L218.57 180.3C220.19 177.6 221.04 174.5 221.04 171.3C221.04 161.57 213.12 153.64 203.39 153.64V153.63ZM216.44 180.48L218.36 186.27L212.57 184.35C212.27 184.25 211.95 184.3 211.68 184.46C209.22 186.04 206.35 186.87 203.38 186.87C194.79 186.87 187.8 179.88 187.8 171.29C187.8 162.7 194.79 155.71 203.38 155.71C211.97 155.71 218.96 162.7 218.96 171.29C218.96 174.26 218.13 177.13 216.55 179.59C216.38 179.86 216.34 180.18 216.44 180.48Z" fill="#E7E5E6"/>
<path d="M182.62 170.25H150.42V122.47H155.18L152.8 124.85C152.39 125.26 152.39 125.91 152.8 126.32C153.21 126.73 153.86 126.73 154.27 126.32L158.42 122.17C158.83 121.76 158.83 121.11 158.42 120.7L154.27 116.55C153.86 116.14 153.21 116.14 152.8 116.55C152.39 116.96 152.39 117.61 152.8 118.02L155.18 120.4H149.38C148.81 120.4 148.34 120.87 148.34 121.44V171.29C148.34 171.86 148.8 172.33 149.38 172.33H182.62C183.19 172.33 183.66 171.86 183.66 171.29C183.66 170.72 183.2 170.25 182.62 170.25Z" fill="#E7E5E6"/>
<path d="M232.47 120.4H199.23C198.66 120.4 198.19 120.87 198.19 121.44C198.19 122.01 198.66 122.48 199.23 122.48H231.43V170.26H226.67L229.05 167.88C229.46 167.47 229.46 166.82 229.05 166.41C228.64 166 227.99 166 227.58 166.41L223.43 170.56C223.02 170.97 223.02 171.62 223.43 172.03L227.58 176.18C227.99 176.59 228.64 176.59 229.05 176.18C229.46 175.77 229.46 175.12 229.05 174.71L226.67 172.33H232.47C233.04 172.33 233.51 171.86 233.51 171.29V121.44C233.51 120.87 233.04 120.4 232.47 120.4Z" fill="#E7E5E6"/>
<path d="M139.64 54.37H86.5901C86.1701 54.37 85.8301 54.71 85.8301 55.13V89.59C85.8301 90.01 86.1701 90.35 86.5901 90.35H139.64C140.06 90.35 140.4 90.01 140.4 89.59V55.13C140.4 54.71 140.06 54.37 139.64 54.37ZM137.24 55.88L113.11 72.76L88.9801 55.88H137.24ZM138.88 88.83H87.3401V56.58L112.68 74.3C112.81 74.39 112.96 74.44 113.11 74.44C113.26 74.44 113.41 74.39 113.54 74.3L138.88 56.58V88.83Z" fill="#E7E5E6"/>
<path d="M121.49 84.29H136.61C137.03 84.29 137.37 83.95 137.37 83.53C137.37 83.11 137.03 82.77 136.61 82.77H121.49C121.07 82.77 120.73 83.11 120.73 83.53C120.73 83.95 121.07 84.29 121.49 84.29Z" fill="#E7E5E6"/>
<path d="M121.49 81.27H136.61C137.03 81.27 137.37 80.93 137.37 80.51C137.37 80.09 137.03 79.75 136.61 79.75H121.49C121.07 79.75 120.73 80.09 120.73 80.51C120.73 80.93 121.07 81.27 121.49 81.27Z" fill="#E7E5E6"/>
<path d="M121.49 78.25H136.61C137.03 78.25 137.37 77.91 137.37 77.49C137.37 77.07 137.03 76.73 136.61 76.73H121.49C121.07 76.73 120.73 77.07 120.73 77.49C120.73 77.91 121.07 78.25 121.49 78.25Z" fill="#E7E5E6"/>
<path d="M383.37 229.3C396.31 229.3 406.83 218.77 406.83 205.84C406.83 192.91 396.3 182.38 383.37 182.38C370.44 182.38 359.91 192.91 359.91 205.84C359.91 218.77 370.44 229.3 383.37 229.3ZM368.86 214.22C368.55 213.69 367.86 213.5 367.33 213.81L364.46 215.47C363.14 212.89 362.33 210.01 362.17 206.96H365.49C366.11 206.96 366.61 206.46 366.61 205.84C366.61 205.22 366.11 204.72 365.49 204.72H362.17C362.33 201.67 363.14 198.79 364.46 196.21L367.33 197.87C367.86 198.18 368.55 197.99 368.86 197.46C369.17 196.93 368.99 196.24 368.45 195.93L365.58 194.27C367.2 191.78 369.33 189.66 371.81 188.04L373.46 190.91C373.77 191.44 374.46 191.63 374.99 191.32C375.52 191.01 375.71 190.33 375.4 189.79L373.74 186.92C376.32 185.6 379.2 184.79 382.25 184.63V187.95C382.25 188.57 382.75 189.07 383.37 189.07C383.99 189.07 384.49 188.57 384.49 187.95V184.63C387.54 184.79 390.42 185.6 393 186.92L391.34 189.79C391.03 190.32 391.21 191.01 391.75 191.32C392.28 191.63 392.97 191.44 393.28 190.91L394.94 188.04C397.42 189.66 399.55 191.78 401.17 194.27L398.3 195.93C397.77 196.24 397.58 196.92 397.89 197.46C398.2 197.99 398.89 198.18 399.42 197.87L402.29 196.21C403.61 198.79 404.42 201.67 404.58 204.72H401.26C400.64 204.72 400.14 205.22 400.14 205.84C400.14 206.46 400.64 206.96 401.26 206.96H404.58C404.42 210.01 403.61 212.89 402.29 215.47L399.42 213.81C398.89 213.5 398.2 213.69 397.89 214.22C397.58 214.75 397.76 215.44 398.3 215.75L401.17 217.41C399.55 219.89 397.42 222.02 394.94 223.64L393.28 220.77C392.97 220.23 392.29 220.05 391.75 220.36C391.22 220.67 391.03 221.35 391.34 221.89L393 224.76C390.42 226.08 387.54 226.89 384.49 227.05V223.73C384.49 223.11 383.99 222.61 383.37 222.61C382.75 222.61 382.25 223.11 382.25 223.73V227.05C379.2 226.89 376.32 226.08 373.74 224.76L375.4 221.89C375.71 221.36 375.53 220.67 374.99 220.36C374.46 220.06 373.77 220.24 373.46 220.77L371.8 223.64C369.32 222.02 367.19 219.89 365.57 217.41L368.44 215.75C368.97 215.44 369.16 214.76 368.85 214.22H368.86Z" fill="#E7E5E6"/>
<path d="M378.71 202.75C378.12 203.63 377.78 204.69 377.78 205.83C377.78 208.91 380.29 211.42 383.37 211.42C386.45 211.42 388.96 208.91 388.96 205.83C388.96 204.69 388.62 203.64 388.03 202.75L395.34 195.44C395.78 195 395.78 194.3 395.34 193.86C394.9 193.42 394.2 193.42 393.76 193.86L386.45 201.17C385.57 200.58 384.51 200.24 383.37 200.24C382.23 200.24 381.18 200.58 380.29 201.17L377.36 198.24C376.92 197.8 376.22 197.8 375.78 198.24C375.34 198.68 375.34 199.38 375.78 199.82L378.71 202.75ZM383.37 202.48C385.22 202.48 386.72 203.98 386.72 205.83C386.72 207.68 385.22 209.18 383.37 209.18C381.52 209.18 380.02 207.68 380.02 205.83C380.02 203.98 381.52 202.48 383.37 202.48Z" fill="#E7E5E6"/>
<path d="M214.8 12.26C198.77 12.26 185.73 25.26 185.73 41.06C185.73 44.9 188.91 47.92 192.66 47.92C196.41 47.92 199.58 44.87 199.58 41.06C199.58 32.76 206.46 25.97 214.8 25.97C224.03 25.97 230.02 33.51 230.02 41.05C230.02 46.89 226.72 52.09 221.48 54.62C213.1 58.68 207.89 66.6 207.89 75.27V79.45C207.89 83.23 210.99 86.31 214.81 86.31C218.63 86.31 221.73 83.23 221.73 79.45V75.27C221.73 71.87 223.96 68.69 227.56 66.94C237.59 62.09 243.84 52.17 243.87 41.06C243.87 25.17 230.83 12.25 214.8 12.25V12.26ZM226.35 64.49C221.8 66.7 218.97 70.83 218.97 75.29V79.47C218.97 81.74 217.11 83.58 214.82 83.58C212.53 83.58 210.67 81.73 210.67 79.47V75.29C210.67 67.67 215.29 60.7 222.71 57.1C228.89 54.11 232.76 47.97 232.81 41.07C232.81 31.24 224.74 23.24 214.81 23.24C204.87 22.97 196.56 31.79 196.82 41.22C196.88 43.47 194.91 45.18 192.67 45.18C190.43 45.18 188.51 43.29 188.51 40.9C188.51 26.77 200.37 15.01 214.81 15.01C229.25 15.01 241.11 26.7 241.11 41.07C241.08 51.13 235.43 60.11 226.35 64.5V64.49Z" fill="#E7E5E6"/>
<path d="M214.8 89.07C210.98 89.07 207.88 92.15 207.88 95.93C207.88 99.71 210.98 102.79 214.8 102.79C218.62 102.79 221.72 99.71 221.72 95.93C221.72 92.15 218.62 89.07 214.8 89.07ZM214.8 100.04C212.51 100.04 210.65 98.19 210.65 95.93C210.65 93.67 212.51 91.82 214.8 91.82C217.09 91.82 218.95 93.67 218.95 95.93C218.95 98.19 217.09 100.04 214.8 100.04Z" fill="#E7E5E6"/>
<path d="M230.65 215.83H228.11C227.87 215.06 227.56 214.32 227.18 213.62L229 211.8C229.26 211.54 229.29 211.14 229.09 210.84C227.88 209.06 226.37 207.55 224.6 206.35C224.3 206.15 223.9 206.19 223.64 206.44L221.82 208.26C221.13 207.88 220.39 207.57 219.62 207.33V204.79C219.62 204.44 219.37 204.13 219.03 204.05C217.1 203.63 214.6 203.63 212.66 204.05C212.31 204.13 212.07 204.43 212.07 204.79V207.33C211.29 207.56 210.56 207.88 209.87 208.26L208.05 206.44C207.8 206.18 207.39 206.15 207.09 206.35C205.32 207.56 203.81 209.07 202.6 210.84C202.4 211.14 202.43 211.54 202.69 211.8L204.51 213.62C204.13 214.31 203.82 215.05 203.58 215.83H201.04C200.69 215.83 200.39 216.08 200.3 216.43C199.9 218.06 199.85 220.88 200.3 222.79C200.38 223.14 200.68 223.39 201.04 223.39H203.58C203.82 224.16 204.13 224.9 204.51 225.6L202.69 227.42C202.43 227.68 202.4 228.08 202.6 228.38C203.81 230.16 205.32 231.67 207.09 232.87C207.39 233.07 207.79 233.04 208.05 232.78L209.87 230.96C210.56 231.34 211.3 231.65 212.07 231.89V234.43C212.07 234.78 212.32 235.09 212.66 235.17C214.38 235.58 217.13 235.61 219.03 235.17C219.37 235.09 219.62 234.79 219.62 234.43V231.89C220.4 231.66 221.13 231.34 221.82 230.96L223.64 232.78C223.89 233.04 224.3 233.08 224.6 232.87C226.37 231.66 227.88 230.15 229.09 228.38C229.29 228.08 229.25 227.68 229 227.42L227.18 225.6C227.56 224.91 227.87 224.17 228.11 223.39H230.65C231 223.39 231.31 223.14 231.39 222.79C231.78 220.91 231.86 218.67 231.39 216.43C231.32 216.08 231.01 215.83 230.65 215.83ZM230.02 221.87H227.53C227.18 221.87 226.88 222.11 226.8 222.44C226.54 223.47 226.14 224.43 225.59 225.3C225.4 225.6 225.45 225.99 225.7 226.23L227.48 228.01C226.57 229.24 225.49 230.32 224.26 231.23L222.48 229.44C222.23 229.19 221.84 229.15 221.55 229.33C220.67 229.88 219.74 230.27 218.69 230.54C218.35 230.62 218.12 230.93 218.12 231.27V233.76C216.72 233.99 214.99 233.99 213.59 233.76V231.27C213.59 230.92 213.35 230.62 213.02 230.54C211.97 230.28 211.03 229.88 210.16 229.33C209.86 229.15 209.47 229.19 209.22 229.44L207.44 231.23C206.21 230.32 205.13 229.24 204.22 228.01L206 226.23C206.25 225.98 206.29 225.59 206.11 225.3C205.57 224.43 205.16 223.46 204.9 222.44C204.82 222.1 204.52 221.87 204.17 221.87H201.68C201.45 220.43 201.46 218.53 201.68 217.34H204.17C204.52 217.34 204.82 217.1 204.9 216.77C205.16 215.74 205.56 214.78 206.11 213.91C206.3 213.61 206.25 213.22 206 212.98L204.22 211.2C205.13 209.97 206.21 208.89 207.44 207.98L209.22 209.77C209.47 210.02 209.86 210.06 210.16 209.88C211.04 209.33 211.97 208.94 213.02 208.67C213.36 208.59 213.59 208.28 213.59 207.94V205.45C214.99 205.22 216.72 205.22 218.12 205.45V207.94C218.12 208.29 218.36 208.59 218.69 208.67C219.74 208.93 220.67 209.33 221.55 209.88C221.85 210.07 222.24 210.03 222.48 209.77L224.26 207.98C225.49 208.89 226.57 209.97 227.48 211.2L225.7 212.98C225.45 213.23 225.41 213.62 225.59 213.91C226.13 214.78 226.54 215.75 226.8 216.77C226.88 217.11 227.18 217.34 227.53 217.34H230.02C230.25 218.68 230.23 220.65 230.02 221.87Z" fill="#E7E5E6"/>
<path d="M215.85 211.3C211.27 211.3 207.54 215.03 207.54 219.61C207.54 224.19 211.27 227.92 215.85 227.92C220.43 227.92 224.16 224.19 224.16 219.61C224.16 215.03 220.43 211.3 215.85 211.3ZM215.85 226.4C212.1 226.4 209.05 223.35 209.05 219.6C209.05 215.85 212.1 212.8 215.85 212.8C219.6 212.8 222.65 215.85 222.65 219.6C222.65 223.35 219.6 226.4 215.85 226.4Z" fill="#E7E5E6"/>
</g>
<defs>
<clipPath id="clip0_149_814">
<rect width="437" height="431.15" fill="white"/>
</clipPath>
</defs>
</svg>
