<svg width="64" height="64" viewBox="0 0 64 64" fill="none" xmlns="http://www.w3.org/2000/svg">
<path d="M58.5866 48.88C58.5866 49.84 58.3733 50.8266 57.9199 51.7866C57.4666 52.7466 56.8799 53.6533 56.1066 54.5066C54.7999 55.9466 53.3599 56.9867 51.7333 57.6533C50.1333 58.32 48.3999 58.6666 46.5333 58.6666C43.8133 58.6666 40.9066 58.0266 37.8399 56.72C34.7733 55.4133 31.7066 53.6533 28.6666 51.44C25.5999 49.2 22.6933 46.72 19.9199 43.9733C17.1733 41.2 14.6933 38.2933 12.4799 35.2533C10.2933 32.2133 8.53325 29.1733 7.25325 26.16C5.97325 23.12 5.33325 20.2133 5.33325 17.44C5.33325 15.6266 5.65325 13.8933 6.29325 12.2933C6.93325 10.6666 7.94659 9.17331 9.35992 7.83998C11.0666 6.15998 12.9333 5.33331 14.9066 5.33331C15.6533 5.33331 16.3999 5.49331 17.0666 5.81331C17.7599 6.13331 18.3733 6.61331 18.8533 7.30665L25.0399 16.0266C25.5199 16.6933 25.8666 17.3066 26.1066 17.8933C26.3466 18.4533 26.4799 19.0133 26.4799 19.52C26.4799 20.16 26.2933 20.8 25.9199 21.4133C25.5733 22.0266 25.0666 22.6666 24.4266 23.3066L22.3999 25.4133C22.1066 25.7066 21.9733 26.0533 21.9733 26.48C21.9733 26.6933 21.9999 26.88 22.0533 27.0933C22.1333 27.3066 22.2133 27.4666 22.2666 27.6266C22.7466 28.5066 23.5733 29.6533 24.7466 31.04C25.9466 32.4266 27.2266 33.84 28.6133 35.2533C30.0533 36.6666 31.4399 37.9733 32.8533 39.1733C34.2399 40.3466 35.3866 41.1466 36.2933 41.6266C36.4266 41.68 36.5866 41.76 36.7733 41.84C36.9866 41.92 37.1999 41.9466 37.4399 41.9466C37.8933 41.9466 38.2399 41.7866 38.5333 41.4933L40.5599 39.4933C41.2266 38.8266 41.8666 38.32 42.4799 38C43.0933 37.6266 43.7066 37.44 44.3733 37.44C44.8799 37.44 45.4133 37.5466 45.9999 37.7866C46.5866 38.0266 47.1999 38.3733 47.8666 38.8266L56.6933 45.0933C57.3866 45.5733 57.8666 46.1333 58.1599 46.8C58.4266 47.4666 58.5866 48.1333 58.5866 48.88Z" stroke="#5F0F58" stroke-width="1.5" stroke-miterlimit="10"/>
<path d="M47.0931 20V19.4401C47.0931 17.6268 48.2132 16.6667 49.3332 15.8934C50.4265 15.1467 51.5197 14.1868 51.5197 12.4268C51.5197 9.97342 49.5464 8 47.0931 8C44.6398 8 42.6665 9.97342 42.6665 12.4268" stroke="#5F0F58" stroke-width="1.5" stroke-linecap="round" stroke-linejoin="round"/>
<path d="M47.0811 26.3737H47.1051" stroke="#5F0F58" stroke-width="1.5" stroke-linecap="round" stroke-linejoin="round"/>
</svg>
