<svg width="48" height="48" viewBox="0 0 48 48" fill="none" xmlns="http://www.w3.org/2000/svg">
<path d="M24 24C29.5228 24 34 19.5228 34 14C34 8.47715 29.5228 4 24 4C18.4772 4 14 8.47715 14 14C14 19.5228 18.4772 24 24 24Z" stroke="#5F0F58" stroke-width="1.5" stroke-linecap="round" stroke-linejoin="round"/>
<path d="M6.82007 44C6.82007 36.26 14.5201 30 24.0001 30C25.9201 30 27.7801 30.26 29.5201 30.74" stroke="#5F0F58" stroke-width="1.5" stroke-linecap="round" stroke-linejoin="round"/>
<path d="M44 36C44 36.64 43.92 37.26 43.76 37.86C43.58 38.66 43.26 39.44 42.84 40.12C41.46 42.44 38.92 44 36 44C33.94 44 32.08 43.2199 30.68 41.9399C30.08 41.4199 29.56 40.8 29.16 40.12C28.42 38.92 28 37.5 28 36C28 33.84 28.86 31.86 30.26 30.42C31.72 28.92 33.76 28 36 28C38.36 28 40.5 29.02 41.94 30.66C43.22 32.08 44 33.96 44 36Z" stroke="#5F0F58" stroke-width="1.5" stroke-miterlimit="10" stroke-linecap="round" stroke-linejoin="round"/>
<path d="M38.0601 33.88L33.8401 38.1" stroke="#5F0F58" stroke-width="1.5" stroke-miterlimit="10" stroke-linecap="round" stroke-linejoin="round"/>
<path d="M33.8801 33.92L38.1201 38.14" stroke="#5F0F58" stroke-width="1.5" stroke-miterlimit="10" stroke-linecap="round" stroke-linejoin="round"/>
</svg>
