<svg width="49" height="48" viewBox="0 0 49 48" fill="none" xmlns="http://www.w3.org/2000/svg">
<circle cx="24.7144" cy="24" r="23.5" stroke="#5F0F58"/>
<path d="M17.7144 33.208V14H27.0384C28.2704 14 29.2877 14.2427 30.0904 14.728C30.9117 15.2133 31.5184 15.876 31.9104 16.716C32.321 17.5373 32.5264 18.4613 32.5264 19.488C32.5264 20.5893 32.2837 21.5787 31.7984 22.456C31.313 23.3147 30.669 23.996 29.8664 24.5C29.0637 24.9853 28.177 25.228 27.2064 25.228H19.2264V33.208H17.7144ZM19.2264 23.884H26.9824C28.1584 23.884 29.1197 23.5013 29.8664 22.736C30.613 21.952 30.9864 20.888 30.9864 19.544C30.9864 18.6667 30.837 17.92 30.5384 17.304C30.2584 16.6693 29.8197 16.184 29.2224 15.848C28.625 15.512 27.8784 15.344 26.9824 15.344H19.2264V23.884Z" fill="#5F0F58"/>
</svg>
